<svg id="Layer_1" data-name="Layer 1" xmlns="http://www.w3.org/2000/svg" viewBox="0 0 480.53 491.18">
	<path d="M369.1,491.18a46.19,46.19,0,0,1,.61-5.12c3.2-13.4,5.8-27,10-40.08,2-6.22,6.44-12,10.93-17,6.27-6.9,13.13-5.68,18.28,1.82A187.12,187.12,0,0,0,420.35,446c5.6,6.61,11.46,13,19.74,16.51,7,2.94,12.32,1.63,15.49-5.13a145.74,145.74,0,0,0,8.86-23.26c8.57-31.42,12.88-63.64,17.13-95.85,6.11-46.37,4.32-92.47-6.23-138.06C461,138.07,431.15,85.28,380.65,45.12,347.8,19,311,3,268.77.59A351.86,351.86,0,0,0,107.41,29.25C87.1,38,68.61,49.63,52.85,65.48,40.45,78,34.68,93.62,31.42,110.13c-1.5,7.59,1.24,15.64,6.44,22,4.85,5.92,12.93,6.23,18.6.9a87.78,87.78,0,0,0,6.38-7.43c12.27,11.67,21.9,10.45,40.9-5,12,10.58,23.34,11.44,37.66,3.13,1-.57,3.06-.09,4.17.61,10.14,6.47,22.5,5.65,31.48-2.22.84-.74,1.77-1.36,2.62-2,13.33,12.08,21.4,14,35.28,8.6,8,14.32,16,16.29,38.39,10.1,3.21,5.91,5.19,12.7,9.63,16.89,5.54,5.23,12.84.76,18.31-.55,2.8,7.74,4.84,15.3,8.2,22.22,3.87,7.93,11.77,9.3,20.24,9-2.33,7.5-3.13,14.31.78,20.89,4,6.79,10.87,7.89,18.35,8.26-4.16,8-6.13,15.36-2.83,23.6-7.3,2.23-14.2,4.54-21.22,6.43a56.58,56.58,0,0,1-43-5.16c-8.5-4.61-16.93-9.32-25.44-13.89-16.66-8.95-34.09-15.95-52.69-19.66C149.42,200,116.32,204.76,84.05,217c-21,8-40.75,18.22-56.46,34.85-17,18-25.38,39.14-22.5,64.2,1.44,12.45,8.89,19.84,20.5,22.07a97.4,97.4,0,0,0,26.25,1.19C72,337.56,90.61,330,108.92,321.84c28.23-12.55,57.31-21.61,88.48-22.78,25.62-1,50.91,1.65,76,6.52,6.13,1.19,12.23,2.54,18.31,3.81-.3,4.34-.54,7.93-.8,11.65-9.42.58-18.45,1.45-23.17,11.28-8.27-5.09-15.7-3.37-23.22,1.25-8.19,5-9.72,12.82-9.18,21.62-10.85-1-20.52-.94-24.91,10.5-21.21-6.57-28.13-4.34-34.62,10.93-13.91-6.55-20.47-3.89-27.69,6.25-5.73-5.57-12.21-8.47-20.26-5.34-7.67,3-10.53,10.07-13.8,16.23-5.18-3.23-9.85-6.73-15-9.21-8.69-4.18-17.43-3.18-24.92,2.78-6.91,5.49-7.51,13.44-5.78,21.46a8.28,8.28,0,0,0,4.13,5.27c10.8,4.35,21.65,8.7,32.74,12.22,39.19,12.44,79.15,19.9,120.52,16.69,35.12-2.73,67.09-13.58,94.17-36.9a20.31,20.31,0,0,1,2.37-1.45c1.2,7.18,2.12,13.91,3.48,20.55,3.61,17.69,8.16,35.07,18.56,50.26C350.21,484,357.88,489.84,369.1,491.18Z" transform="translate(-4.53 0)" style="fill:#fff" />
	<path d="M369.1,491.18c-11.22-1.34-18.89-7.18-24.77-15.75-10.4-15.19-14.95-32.57-18.56-50.26-1.36-6.64-2.28-13.37-3.48-20.55a20.31,20.31,0,0,0-2.37,1.45c-27.08,23.32-59.05,34.17-94.17,36.9-41.37,3.21-81.33-4.25-120.52-16.69-11.09-3.52-21.94-7.87-32.74-12.22a8.28,8.28,0,0,1-4.13-5.27c-1.73-8-1.13-16,5.78-21.46,7.49-6,16.23-7,24.92-2.78,5.17,2.48,9.84,6,15,9.21,3.27-6.16,6.13-13.26,13.8-16.23,8.05-3.13,14.53-.23,20.26,5.34,7.22-10.14,13.78-12.8,27.69-6.25,6.49-15.27,13.41-17.5,34.62-10.93,4.39-11.44,14.06-11.47,24.91-10.5-.54-8.8,1-16.6,9.18-21.62,7.52-4.62,15-6.34,23.22-1.25,4.72-9.83,13.75-10.7,23.17-11.28.26-3.72.5-7.31.8-11.65-6.08-1.27-12.18-2.62-18.31-3.81-25.11-4.87-50.4-7.48-76-6.52-31.17,1.17-60.25,10.23-88.48,22.78C90.61,330,72,337.56,51.84,339.28a97.4,97.4,0,0,1-26.25-1.19C14,335.86,6.53,328.47,5.09,316c-2.88-25.06,5.46-46.16,22.5-64.2C43.3,235.19,63,224.93,84.05,217c32.27-12.21,65.37-17,99.58-10.15,18.6,3.71,36,10.71,52.69,19.66,8.51,4.57,16.94,9.28,25.44,13.89a56.58,56.58,0,0,0,43,5.16c7-1.89,13.92-4.2,21.22-6.43-3.3-8.24-1.33-15.64,2.83-23.6-7.48-.37-14.32-1.47-18.35-8.26-3.91-6.58-3.11-13.39-.78-20.89-8.47.28-16.37-1.09-20.24-9-3.36-6.92-5.4-14.48-8.2-22.22-5.47,1.31-12.77,5.78-18.31.55-4.44-4.19-6.42-11-9.63-16.89C230.93,145,222.94,143,215,128.67c-13.88,5.42-21.95,3.48-35.28-8.6-.85.64-1.78,1.26-2.62,2-9,7.87-21.34,8.69-31.48,2.22-1.11-.7-3.2-1.18-4.17-.61-14.32,8.31-25.63,7.45-37.66-3.13-19,15.48-28.63,16.7-40.9,5A87.78,87.78,0,0,1,56.46,133c-5.67,5.33-13.75,5-18.6-.9-5.2-6.34-7.94-14.39-6.44-22,3.26-16.51,9-32.17,21.43-44.65C68.61,49.63,87.1,38,107.41,29.25A351.86,351.86,0,0,1,268.77.59C311,3,347.8,19,380.65,45.12c50.5,40.16,80.31,92.95,94.69,155.06,10.55,45.59,12.34,91.69,6.23,138.06-4.25,32.21-8.56,64.43-17.13,95.85a145.74,145.74,0,0,1-8.86,23.26c-3.17,6.76-8.49,8.07-15.49,5.13C431.81,459,426,452.58,420.35,446a187.12,187.12,0,0,1-11.43-15.15c-5.15-7.5-12-8.72-18.28-1.82-4.49,4.94-8.94,10.76-10.93,17-4.2,13.08-6.8,26.68-10,40.08A46.19,46.19,0,0,0,369.1,491.18ZM46.61,95.3c2.78-.28,4.56-.52,6.35-.62,24.94-1.41,49.87-3.76,74.82-4,41.51-.37,82.49,4.43,122.13,17.59,30.48,10.12,58.24,24.91,79.78,49.32,32.18,36.45,40.26,77.56,21.79,123-10.68,26.29-28.08,47.95-49.42,66.29-51.69,44.41-112,67-179.89,70.08-2.17.1-4.36,0-7.41,0,1.16,1.26,1.33,1.62,1.59,1.7,32.51,9.34,65.49,15.57,99.5,14.26,43.6-1.69,81.87-15.57,111.19-49.48,1-1.13,2.2-2.07,3.94-3.69.23,2.25.38,3.37.45,4.49,1.29,19.32,3.68,38.48,9,57.16,3.05,10.78,6.67,21.34,14,30.11a67.5,67.5,0,0,0,5.54,5.22c.66-3.16,1.09-5.28,1.55-7.39,3.06-14.23,6.76-28.31,15.23-40.4a53.41,53.41,0,0,1,12.31-12.11c5.55-4,12.21-3.48,18.81-2.32,5.16.9,6.54,5.14,8.84,8.68a64.35,64.35,0,0,0,4.44,6.63c6.09,7.23,11.94,14.72,18.65,21.34,4.06,4,7.47,2.88,9.73-2.36,2-4.72,4-9.61,4.95-14.62,5.06-28,10-56,14.56-84.14,7.6-46.83,7.21-93.61-2.52-140.13-13.27-63.39-42.66-117.17-94.34-157.71C338.7,26,301.08,11.74,258.37,10.8A351.46,351.46,0,0,0,125.68,33.31C102.64,42,80.84,53,63,70.56A65.72,65.72,0,0,0,46.61,95.3ZM309.66,256.46c-7.65.59-16.07,1.86-24.46,1.75-14.49-.2-26.86-7.07-39.07-14C227.72,233.73,209,224.07,188.2,219c-35.49-8.68-69.75-4-103.27,9.17-18.14,7.11-35.13,16.21-48.78,30.4C20.69,274.61,12.6,293.4,16,316.19c1,6.54,4.85,10.66,10.82,11.45a107.67,107.67,0,0,0,24.71.87c21.51-2.16,41-11.15,60.53-19.68C143.31,295.18,175.74,287.59,210,288a378.89,378.89,0,0,1,81.6,10.42c6.19,1.44,12,1.62,18.17-.84-1-8.3.47-15.85,7.43-19.74C314.5,270.27,312.09,263.39,309.66,256.46Zm15.24-89.19-26.22-23.88c-6.63,7.11-6.23,21.42,0,28.29C303.72,177.23,313.61,175.9,324.9,167.27Zm17,109.5c2.13-7.32,4.26-14.08,5.95-20.94.27-1.09-1.28-3.69-2.23-3.83-5-.71-10.15-1.58-15.08-1-8.18.95-11,6.83-7,14a17.69,17.69,0,0,0,6.12,6.22C333.3,273.38,337.36,274.74,341.94,276.77Zm-70.7,80.73c-2.38-4.57-4.38-8.86-6.78-12.91-2-3.36-5-5.66-9.15-4.22-4.46,1.54-8.9,3.54-9.35,9.16-.57,7.23,2.31,13.47,5.85,20Zm-169.62-256-33.7,2.22c1,4.56,1.38,8.34,2.62,11.83,2.09,5.92,6.19,8,12.16,6.28C92.52,119,97.46,111.44,101.62,101.47ZM344.81,201c-4.78-8.88-8.89-16.5-13.05-24.24-6.63,4.73-11.55,11.28-12.92,16.67-1.81,7.12,1.67,11.92,8.9,11.26C333.06,204.22,338.26,202.48,344.81,201ZM186.5,396.65l26.55-8.94c-3.22-8.85-8.23-13.82-16.56-14.77-5.28-.6-9.08,1.64-9.83,6.85S186.5,390.2,186.5,396.65ZM112.66,101.42c-1.08,6.16-.69,11.5,4.37,14.89,4.79,3.2,10.28,3,15.16.14,5.45-3.21,7.67-8.38,7.29-15Zm114.88,11c-4,8.51-1.84,16.26,4.56,18.3,8,2.53,19.1-1.37,24.65-9.15ZM147.31,404.22c-3-5.64-5-10.36-7.87-14.47-2.4-3.44-6.23-3.85-9.59-1-5.24,4.42-6.39,10.65-7.9,17.66,7-.53,12.91-1,18.82-1.43C142.37,404.83,144,404.6,147.31,404.22ZM348.05,211.34l-2.17-.55c-2.67,3.64-5.69,7.08-7.93,11-6.09,10.57-.78,19,12.88,18.79C349.89,230.75,349,221.05,348.05,211.34ZM151.74,101.75c-3,10-1.21,14.32,5.87,15.68C166,119,174,112.89,175.13,103.57Zm35.33,3.11c-1.1,7.14,3.87,13,12.3,15.4,6.58,1.86,12.47-1.72,16.51-10.52Zm101.57,33.91c0-.55-.07-1.1-.1-1.65l-21.05-10.87c-2.38,6.36-1.95,11.64-.5,17.08,1.11,4.14,3.61,5.17,7,3.53C279,144.44,283.77,141.49,288.64,138.77Zm-210,265.7,29.8,2.19a25.21,25.21,0,0,0-15.86-13.08C85.15,391.34,79.45,395.49,78.61,404.47Zm98.84-5.77c-3.23-4.95-5.3-9.29-8.43-12.63-3.54-3.79-9.12-2.8-10.5,1.75s-1.48,9.49-2.28,15.26Zm45.5-15,20-9.21c-3-2.84-4.89-5.86-7.5-6.77-3.65-1.26-8.3-2.2-11.71-1-4.21,1.49-3.07,6.4-2.47,10.17C221.56,379,222.24,381,223,383.69ZM58.49,104.79l-17.43,2.37c.83,4.94,1.3,9.41,2.46,13.7.48,1.81,2.25,4.3,3.74,4.53s4.05-1.71,4.78-3.31C54.34,117,56,111.64,58.49,104.79ZM280.13,351.14,298.38,336c-5.43-4.45-13.81-5.17-18.16-2C276.52,336.72,276.32,342.68,280.13,351.14Zm26.4-23L319.85,313c-5.8-4.42-12.13-5.07-15.51-2C300.56,314.51,301.09,319.86,306.53,328.14Zm20.4-24.66,10.15-16.86c-7.41-2.43-14-1.16-16.08,2.68C318.8,293.41,320.8,298.68,326.93,303.48Z" transform="translate(-4.53 0)" />
	<path d="M46.61,95.3A65.72,65.72,0,0,1,63,70.56C80.84,53,102.64,42,125.68,33.31A351.46,351.46,0,0,1,258.37,10.8c42.71.94,80.33,15.16,113.82,41.43,51.68,40.54,81.07,94.32,94.34,157.71,9.73,46.52,10.12,93.3,2.52,140.13-4.56,28.09-9.5,56.13-14.56,84.14-.9,5-2.91,9.9-4.95,14.62-2.26,5.24-5.67,6.38-9.73,2.36-6.71-6.62-12.56-14.11-18.65-21.34a64.35,64.35,0,0,1-4.44-6.63c-2.3-3.54-3.68-7.78-8.84-8.68-6.6-1.16-13.26-1.72-18.81,2.32A53.41,53.41,0,0,0,376.76,429c-8.47,12.09-12.17,26.17-15.23,40.4-.46,2.11-.89,4.23-1.55,7.39a67.5,67.5,0,0,1-5.54-5.22c-7.35-8.77-11-19.33-14-30.11-5.31-18.68-7.7-37.84-9-57.16-.07-1.12-.22-2.24-.45-4.49-1.74,1.62-3,2.56-3.94,3.69-29.32,33.91-67.59,47.79-111.19,49.48-34,1.31-67-4.92-99.5-14.26-.26-.08-.43-.44-1.59-1.7,3,0,5.24.09,7.41,0,67.84-3.13,128.2-25.67,179.89-70.08,21.34-18.34,38.74-40,49.42-66.29,18.47-45.44,10.39-86.55-21.79-123-21.54-24.41-49.3-39.2-79.78-49.32-39.64-13.16-80.62-18-122.13-17.59-25,.22-49.88,2.57-74.82,4C51.17,94.78,49.39,95,46.61,95.3ZM211.28,52.67c-1.06-3.87-1.63-7.7-3.18-11.07-1.77-3.84-5.4-3.81-7.79-.42-3.55,5.06-3.51,16.91.07,21.91,2.33,3.25,5.71,3.44,7.52-.07C209.51,59.88,210.16,56.24,211.28,52.67Zm39.27,2.27c-.94-3.76-1.44-7.23-2.75-10.35a6.39,6.39,0,0,0-4.33-3.34c-1.23-.14-3.28,1.62-4,3-3.47,6.95-3.47,14.07.39,20.88,2.14,3.78,5.56,3.84,7.57-.07C249,62,249.57,58.28,250.55,54.94Z" transform="translate(-4.53 0)" style="fill:#fff" />
	<path d="M309.66,256.46c2.43,6.93,4.84,13.81,7.51,21.4-7,3.89-8.46,11.44-7.43,19.74-6.2,2.46-12,2.28-18.17.84A378.89,378.89,0,0,0,210,288c-34.23-.43-66.66,7.16-97.91,20.81-19.52,8.53-39,17.52-60.53,19.68a107.67,107.67,0,0,1-24.71-.87c-6-.79-9.85-4.91-10.82-11.45-3.4-22.79,4.69-41.58,20.15-57.63,13.65-14.19,30.64-23.29,48.78-30.4C118.45,215,152.71,210.31,188.2,219c20.77,5.08,39.52,14.74,57.93,25.21,12.21,6.94,24.58,13.81,39.07,14C293.59,258.32,302,257.05,309.66,256.46ZM163.24,240c-8.57,1-17.26,1.53-25.7,3.22-17.6,3.51-33.51,10.92-46.86,23.1-1.51,1.37-1.37,4.55-2,6.88,2.55.58,5.09,1.51,7.65,1.59,1.19,0,2.39-1.64,3.65-2.43,6.47-4.05,12.63-8.78,19.5-12,25.94-12,52.59-10.85,79.56-3.54,22.64,6.14,45.32,12.2,68.19,17.4,8.77,2,18.1,1.76,27.19,1.94,1.77,0,3.6-2.69,5.4-4.14-1.72-1.77-3.23-3.86-5.24-5.21-1.22-.82-3.21-.51-4.86-.67-5.79-.58-11.73-.49-17.34-1.82-20.88-5-41.72-10.15-62.45-15.71C194.62,244.55,179.32,240.68,163.24,240Z" transform="translate(-4.53 0)" style="fill:#fff" />
	<path d="M324.9,167.27c-11.29,8.63-21.18,10-26.22,4.41-6.23-6.87-6.63-21.18,0-28.29Z" transform="translate(-4.53 0)" style="fill:#fff" />
	<path d="M341.94,276.77c-4.58-2-8.64-3.39-12.21-5.55a17.69,17.69,0,0,1-6.12-6.22c-4-7.18-1.21-13.06,7-14,4.93-.57,10.09.3,15.08,1,.95.14,2.5,2.74,2.23,3.83C346.2,262.69,344.07,269.45,341.94,276.77Z" transform="translate(-4.53 0)" style="fill:#fff" />
	<path d="M271.24,357.5l-19.43,12c-3.54-6.51-6.42-12.75-5.85-20,.45-5.62,4.89-7.62,9.35-9.16,4.18-1.44,7.16.86,9.15,4.22C266.86,348.64,268.86,352.93,271.24,357.5Z" transform="translate(-4.53 0)" style="fill:#fff" />
	<path d="M101.62,101.47c-4.16,10-9.1,17.51-18.92,20.33-6,1.71-10.07-.36-12.16-6.28-1.24-3.49-1.65-7.27-2.62-11.83Z" transform="translate(-4.53 0)" style="fill:#fff" />
	<path d="M344.81,201c-6.55,1.47-11.75,3.21-17.07,3.69-7.23.66-10.71-4.14-8.9-11.26,1.37-5.39,6.29-11.94,12.92-16.67C335.92,184.51,340,192.13,344.81,201Z" transform="translate(-4.53 0)" style="fill:#fff" />
	<path d="M186.5,396.65c0-6.45-.58-11.75.16-16.86s4.55-7.45,9.83-6.85c8.33.95,13.34,5.92,16.56,14.77Z" transform="translate(-4.53 0)" style="fill:#fff" />
	<path d="M112.66,101.42h26.82c.38,6.65-1.84,11.82-7.29,15-4.88,2.87-10.37,3.06-15.16-.14C112,112.92,111.58,107.58,112.66,101.42Z" transform="translate(-4.53 0)" style="fill:#fff" />
	<path d="M227.54,112.45l29.21,9.15c-5.55,7.78-16.69,11.68-24.65,9.15C225.7,128.71,223.53,121,227.54,112.45Z" transform="translate(-4.53 0)" style="fill:#fff" />
	<path d="M147.31,404.22c-3.34.38-4.94.61-6.54.74-5.91.47-11.82.9-18.82,1.43,1.51-7,2.66-13.24,7.9-17.66,3.36-2.83,7.19-2.42,9.59,1C142.31,393.86,144.31,398.58,147.31,404.22Z" transform="translate(-4.53 0)" style="fill:#fff" />
	<path d="M348.05,211.34c.92,9.71,1.84,19.41,2.78,29.21-13.66.17-19-8.22-12.88-18.79,2.24-3.89,5.26-7.33,7.93-11Z" transform="translate(-4.53 0)" style="fill:#fff" />
	<path d="M151.74,101.75l23.39,1.82C174,112.89,166,119,157.61,117.43,150.53,116.07,148.78,111.72,151.74,101.75Z" transform="translate(-4.53 0)" style="fill:#fff" />
	<path d="M187.07,104.86l28.81,4.88c-4,8.8-9.93,12.38-16.51,10.52C190.94,117.89,186,112,187.07,104.86Z" transform="translate(-4.53 0)" style="fill:#fff" />
	<path d="M288.64,138.77c-4.87,2.72-9.63,5.67-14.64,8.09-3.4,1.64-5.9.61-7-3.53-1.45-5.44-1.88-10.72.5-17.08l21.05,10.87C288.57,137.67,288.61,138.22,288.64,138.77Z" transform="translate(-4.53 0)" style="fill:#fff" />
	<path d="M78.61,404.47c.84-9,6.54-13.13,13.94-10.89a25.21,25.21,0,0,1,15.86,13.08Z" transform="translate(-4.53 0)" style="fill:#fff" />
	<path d="M177.45,398.7l-21.21,4.38c.8-5.77.89-10.71,2.28-15.26s7-5.54,10.5-1.75C172.15,389.41,174.22,393.75,177.45,398.7Z" transform="translate(-4.53 0)" style="fill:#fff" />
	<path d="M223,383.69c-.71-2.73-1.39-4.73-1.72-6.79-.6-3.77-1.74-8.68,2.47-10.17,3.41-1.22,8.06-.28,11.71,1,2.61.91,4.49,3.93,7.5,6.77Z" transform="translate(-4.53 0)" style="fill:#fff" />
	<path d="M58.49,104.79C56,111.64,54.34,117,52,122.08c-.73,1.6-3.34,3.53-4.78,3.31s-3.26-2.72-3.74-4.53c-1.16-4.29-1.63-8.76-2.46-13.7Z" transform="translate(-4.53 0)" style="fill:#fff" />
	<path d="M280.13,351.14c-3.81-8.46-3.61-14.42.09-17.11,4.35-3.17,12.73-2.45,18.16,2Z" transform="translate(-4.53 0)" style="fill:#fff" />
	<path d="M306.53,328.14c-5.44-8.28-6-13.63-2.19-17.12,3.38-3.11,9.71-2.46,15.51,2Z" transform="translate(-4.53 0)" style="fill:#fff" />
	<path d="M326.93,303.48c-6.13-4.8-8.13-10.07-5.93-14.18,2-3.84,8.67-5.11,16.08-2.68Z" transform="translate(-4.53 0)" style="fill:#fff" />
	<path d="M211.28,52.67c-1.12,3.57-1.77,7.21-3.38,10.35-1.81,3.51-5.19,3.32-7.52.07-3.58-5-3.62-16.85-.07-21.91,2.39-3.39,6-3.42,7.79.42C209.65,45,210.22,48.8,211.28,52.67Z" transform="translate(-4.53 0)" />
	<path d="M250.55,54.94c-1,3.34-1.51,7-3.11,10.14-2,3.91-5.43,3.85-7.57.07-3.86-6.81-3.86-13.93-.39-20.88.71-1.4,2.76-3.16,4-3a6.39,6.39,0,0,1,4.33,3.34C249.11,47.71,249.61,51.18,250.55,54.94Z" transform="translate(-4.53 0)" />
	<path d="M163.24,240c16.08.68,31.38,4.55,46.7,8.65,20.73,5.56,41.57,10.75,62.45,15.71,5.61,1.33,11.55,1.24,17.34,1.82,1.65.16,3.64-.15,4.86.67,2,1.35,3.52,3.44,5.24,5.21-1.8,1.45-3.63,4.18-5.4,4.14-9.09-.18-18.42.06-27.19-1.94-22.87-5.2-45.55-11.26-68.19-17.4-27-7.31-53.62-8.47-79.56,3.54-6.87,3.18-13,7.91-19.5,12-1.26.79-2.46,2.47-3.65,2.43-2.56-.08-5.1-1-7.65-1.59.62-2.33.48-5.51,2-6.88,13.35-12.18,29.26-19.59,46.86-23.1C146,241.53,154.67,241,163.24,240Z" transform="translate(-4.53 0)" />
</svg>
