<svg id="Layer_1" data-name="Layer 1" xmlns="http://www.w3.org/2000/svg" viewBox="0 0 901.46 617.46">
	<defs>
		<style>
			.cls-1{fill:#fff;}
			.bg{fill:transparent;}
		</style>
	</defs>
	<path class="bg" d="M942.58,787h-960V-173h960ZM559.2,491.18a46.19,46.19,0,0,1,.61-5.12c3.2-13.4,5.79-27,10-40.08,2-6.22,6.45-12,10.94-17,6.27-6.9,13.13-5.68,18.28,1.82A187.12,187.12,0,0,0,610.45,446c5.6,6.61,11.46,13,19.74,16.51,7,2.94,12.32,1.63,15.49-5.13a146.71,146.71,0,0,0,8.86-23.26c8.57-31.42,12.88-63.64,17.12-95.85,6.12-46.37,4.33-92.47-6.22-138.06-14.38-62.11-44.19-114.9-94.69-155.06C537.9,19,501.07,3,458.87.59A351.86,351.86,0,0,0,297.51,29.25C277.2,38,258.7,49.63,243,65.48c-12.4,12.48-18.17,28.14-21.43,44.65-1.5,7.59,1.24,15.64,6.44,22,4.85,5.92,12.93,6.23,18.6.9a87.78,87.78,0,0,0,6.38-7.43c12.27,11.67,21.89,10.45,40.9-5,12,10.58,23.34,11.44,37.66,3.13,1-.57,3.06-.09,4.17.61,10.14,6.47,22.5,5.65,31.48-2.22.84-.74,1.77-1.36,2.62-2,13.33,12.08,21.4,14,35.28,8.6,8,14.32,16,16.29,38.39,10.1,3.21,5.91,5.19,12.7,9.62,16.89,5.55,5.23,12.84.76,18.32-.55,2.8,7.74,4.84,15.3,8.2,22.22,3.86,7.93,11.77,9.3,20.24,9-2.33,7.5-3.13,14.31.78,20.89,4,6.79,10.87,7.89,18.34,8.26-4.15,8-6.12,15.36-2.82,23.6-7.3,2.23-14.2,4.54-21.22,6.43a56.61,56.61,0,0,1-43-5.16c-8.49-4.61-16.92-9.32-25.43-13.89-16.66-8.95-34.09-15.95-52.69-19.66-34.21-6.81-67.31-2.06-99.58,10.15-21,8-40.75,18.22-56.46,34.85-17,18-25.39,39.14-22.5,64.2,1.44,12.45,8.89,19.84,20.5,22.07a97.38,97.38,0,0,0,26.25,1.19c20.17-1.72,38.77-9.31,57.08-17.44,28.23-12.55,57.31-21.61,88.48-22.78,25.62-1,50.91,1.65,76,6.52,6.13,1.19,12.23,2.54,18.31,3.81-.3,4.34-.54,7.93-.8,11.65-9.42.58-18.45,1.45-23.17,11.28-8.27-5.09-15.7-3.37-23.22,1.25-8.19,5-9.72,12.82-9.18,21.62-10.85-1-20.52-.94-24.91,10.5-21.21-6.57-28.13-4.34-34.62,10.93-13.91-6.55-20.47-3.89-27.69,6.25-5.73-5.57-12.21-8.47-20.26-5.34-7.67,3-10.53,10.07-13.8,16.23-5.18-3.23-9.86-6.73-15-9.21-8.7-4.18-17.43-3.18-24.92,2.78-6.92,5.49-7.51,13.44-5.78,21.46a8.28,8.28,0,0,0,4.13,5.27c10.8,4.35,21.65,8.7,32.74,12.22,39.19,12.44,79.14,19.9,120.52,16.69,35.12-2.73,67.09-13.58,94.17-36.9a19.48,19.48,0,0,1,2.37-1.45c1.2,7.18,2.12,13.91,3.47,20.55,3.62,17.69,8.17,35.07,18.57,50.26C540.31,484,548,489.84,559.2,491.18ZM434.33,521.45c-8.17,0-16,.36-23.74-.13-5.32-.34-8.37,1.37-9.92,6.43a41.06,41.06,0,0,1-3.32,7.24c-2.86,5.35-5.83,10.64-9.32,17-3.15-5.71-5.76-10.31-8.24-15-2.71-5.08-4.09-12.23-8.29-14.77s-11.31-.69-17.14-.72c-5.07,0-10.14,0-14.92,0,1.5,30.77,3,60.65,4.42,90.58h21.57v-25.4l1.19-.21L388,614.64c6.95-9.88,13.5-19.17,20-28.47l1.29.26v25.64h21.4C431.93,581.77,433.12,551.91,434.33,521.45Zm425.11,72.47,1.46-.33c.56,1,1.11,1.94,1.68,2.9,3.77,6.26,7.46,12.56,11.38,18.72.65,1,2.67,2.23,3.44,1.9,7.51-3.24,14.89-6.78,22.22-10.19-6.11-7.15-11.93-14-18-21.07l2.8-1.7c12.13-7,17.74-17.54,16.93-31.52s-7.83-23.55-20.76-28.4c-19-7.12-38.59-4.5-58.25-3.06,0,3.38-.1,6.18,0,9,1.08,25.78,2.26,51.56,3.23,77.34.14,3.75,1,5.29,5.15,5.1,8.14-.38,16.32-.28,24.47-.05,3.36.09,4.39-1,4.25-4.27C859.29,603.48,859.44,598.7,859.44,593.92Zm-669.8,0,1.4-.13c5.24,7.83,10.49,15.65,15.86,23.68L235,604.86a61.94,61.94,0,0,1-5.83-4.59c-5.6-5.68-11-11.53-16.64-17.21-2-2-2-3.64-.64-6.08,4.16-7.39,8.05-14.93,12-22.45,4.87-9.34,9.66-18.73,14.7-28.51l-32.49-7c-4.58,13.84-8.92,27-13.27,40.06l-1.18-.32c.68-12.36,1.37-24.72,2.06-37.26H153a12.76,12.76,0,0,0-.3,2.14q2,42.64,3.92,85.28c.11,2.59,1.08,3.46,3.62,3.43,8.49-.1,17-.19,25.47,0,3.25.08,4-1.26,3.94-4.12C189.55,603.48,189.64,598.69,189.64,593.91Zm332.17-33c-.63-3.34-1.19-10.25-3.33-16.62-5-14.73-15.05-24.22-30.9-26.14s-28.89,3.07-38,16.64c-12.14,18.06-9.87,50.82,4.61,67.62,14.33,16.63,38,17.62,53.33,1.83C518.17,593.17,521.63,579.28,521.81,560.86Zm31.62,21.52,1.65-.89,42.62,31.4c1.22-30.7,2.4-60.73,3.6-91.09H580.37v19.92c-6.67-6.23-12.53-11.78-18.49-17.21-1.3-1.2-2.94-2.82-4.47-2.86-9.27-.27-18.55-.13-28.1-.13l5,90.44h19.08ZM813.92,522H751.65c.49,7.32,1.09,14.11,1.38,20.92q1.37,32.43,2.49,64.85c.11,3.28.83,4.71,4.51,4.66,14.82-.21,29.63,0,44.45-.17,1.56,0,4.19-.76,4.49-1.74,1.55-4.94,2.5-10.07,3.68-15.22l-23.14,1.42c0-3.47.12-6.27,0-9.05-.2-3.54,1.41-4.7,4.78-4.41,4.42.37,8.87.52,13.53.77,1.14-5.31,2.21-10.3,3.41-15.91H790.48c0-1.7,0-2.85,0-4,.34-7.33.35-7.36,7.64-6.81,4.38.33,8.76.78,13.39,1.2C812.34,545.94,813.13,534,813.92,522Zm-570.09-.25c.48,7.46,1.07,14.4,1.35,21.36.89,21.63,1.67,43.26,2.47,64.89.08,2.21-.18,4.38,3.19,4.36,15.82-.06,31.64,0,47.46-.08a3.81,3.81,0,0,0,2.93-1.92c1.35-4.9,2.36-9.89,3.54-15.06l-23.15,1.43c0-3.86.06-6.85,0-9.83-.07-2.8,1.17-3.87,3.95-3.62,3.64.33,7.3.59,11,.61,1.27,0,3.47-.56,3.66-1.27,1.18-4.56,1.92-9.24,2.92-14.5H282.68c0-2.17.14-3.83,0-5.45-.48-4.72,1.63-6.12,6.13-5.48,4.71.68,9.5.87,14.81,1.32.82-12.43,1.6-24.44,2.41-36.76Zm-96.25,90.8c-.56-2.53-1-4.44-1.39-6.33-6-26.78-12.18-53.54-18-80.36-.79-3.66-2.24-4.48-5.6-4.41-8.82.19-17.65.25-26.46,0-3.67-.11-4.67,1.26-5.38,4.66-5.35,25.55-11,51.05-16.5,76.56-.68,3.16-1.39,6.31-2.1,9.51,16.07,1.73,16.07,1.72,19.42-9,.06-.21.48-.32,1.08-.68,1.94,3.77,3.88,7.51,5.83,11.29l14.32-9.41a39.32,39.32,0,0,0,1.84,5.6c.53,1,1.63,2.43,2.5,2.45C127.09,612.58,137,612.52,147.58,612.52ZM66.92,595.33c-3.43.68-6.15,1.47-8.92,1.72-5.86.54-11.29-.72-15.57-5.08-6.4-6.52-6.69-14.36-3.79-22.28s9.52-11.23,17.49-12c3.57-.35,7.2-.06,11.27-.06-.57-11.54-1-22.8-1.83-34-.08-1.07-2.31-2.75-3.63-2.84a136.85,136.85,0,0,0-18.44-.41C16.27,522.19-.63,540.92,0,568.18c.75,31.56,29.15,53.23,59.51,45.29,1.66-.44,4-1.73,4.37-3.08C65.26,605.65,65.9,600.7,66.92,595.33Zm677.57-37.25V521.54H673.27v36.62c5.38-.28,9.7-.37,14-.79,3-.29,4.23.77,4.37,3.78.35,7.48,1,15,1.36,22.42.52,9.42,1,18.84,1.45,28.73,8.35,0,16.15-.17,23.93.07,3.66.11,4.88-1,5-4.75.56-14.13,1.42-28.26,2.24-42.38.15-2.56.62-5.11,1-8ZM664.41,558c.32-.5.65-.78.64-1-.46-11.13-.89-22.27-1.53-33.39a3.76,3.76,0,0,0-2.39-2.54c-12.72-2.69-25.46-3.62-37.71,1.91-8.67,3.92-13.71,10.73-14.79,20.37-1.27,11.43,3,20.39,11.53,27.77,4.5,3.91,9.21,7.79,12.8,12.47,1.64,2.14,1.86,6.62.76,9.2-.8,1.87-4.75,2.9-7.44,3.32s-5.45-.45-8.57-.79c.37,1.72.39,3.1.95,4.22,2.2,4.35-.44,11.41,5.46,13.22,4.89,1.49,10.63,1.26,15.81.51,18.81-2.71,26.31-18.55,17-35-1.32-2.32-3.34-4.41-4-6.87-.83-3.14-1.51-6.83-.61-9.78,1.16-3.85,5.18-4.13,8.86-3.75C662.27,557.92,663.4,558,664.41,558Z" />
	<path d="M559.2,491.18c-11.22-1.34-18.89-7.18-24.77-15.75-10.4-15.19-14.95-32.57-18.57-50.26-1.35-6.64-2.27-13.37-3.47-20.55a19.48,19.48,0,0,0-2.37,1.45c-27.08,23.32-59,34.17-94.17,36.9-41.38,3.21-81.33-4.25-120.52-16.69-11.09-3.52-21.94-7.87-32.74-12.22a8.28,8.28,0,0,1-4.13-5.27c-1.73-8-1.14-16,5.78-21.46,7.49-6,16.22-7,24.92-2.78,5.16,2.48,9.84,6,15,9.21,3.27-6.16,6.13-13.26,13.8-16.23,8-3.13,14.53-.23,20.26,5.34,7.22-10.14,13.78-12.8,27.69-6.25,6.49-15.27,13.41-17.5,34.62-10.93,4.39-11.44,14.06-11.47,24.91-10.5-.54-8.8,1-16.6,9.18-21.62,7.52-4.62,14.95-6.34,23.22-1.25,4.72-9.83,13.75-10.7,23.17-11.28.26-3.72.5-7.31.8-11.65-6.08-1.27-12.18-2.62-18.31-3.81-25.11-4.87-50.4-7.48-76-6.52-31.17,1.17-60.25,10.23-88.48,22.78-18.31,8.13-36.91,15.72-57.08,17.44a97.38,97.38,0,0,1-26.25-1.19c-11.61-2.23-19.06-9.62-20.5-22.07-2.89-25.06,5.46-46.16,22.5-64.2,15.71-16.63,35.42-26.89,56.46-34.85,32.27-12.21,65.37-17,99.58-10.15,18.6,3.71,36,10.71,52.69,19.66,8.51,4.57,16.94,9.28,25.43,13.89a56.61,56.61,0,0,0,43,5.16c7-1.89,13.92-4.2,21.22-6.43-3.3-8.24-1.33-15.64,2.82-23.6-7.47-.37-14.31-1.47-18.34-8.26-3.91-6.58-3.11-13.39-.78-20.89-8.47.28-16.38-1.09-20.24-9-3.36-6.92-5.4-14.48-8.2-22.22-5.48,1.31-12.77,5.78-18.32.55-4.43-4.19-6.41-11-9.62-16.89C421,145,413,143,405.05,128.67c-13.88,5.42-21.95,3.48-35.28-8.6-.85.64-1.78,1.26-2.62,2-9,7.87-21.34,8.69-31.48,2.22-1.11-.7-3.2-1.18-4.17-.61-14.32,8.31-25.63,7.45-37.66-3.13-19,15.48-28.63,16.7-40.9,5a87.78,87.78,0,0,1-6.38,7.43c-5.67,5.33-13.75,5-18.6-.9-5.2-6.34-7.94-14.39-6.44-22,3.26-16.51,9-32.17,21.43-44.65C258.7,49.63,277.2,38,297.51,29.25A351.86,351.86,0,0,1,458.87.59C501.07,3,537.9,19,570.75,45.12c50.5,40.16,80.31,92.95,94.69,155.06,10.55,45.59,12.34,91.69,6.22,138.06-4.24,32.21-8.55,64.43-17.12,95.85a146.71,146.71,0,0,1-8.86,23.26c-3.17,6.76-8.49,8.07-15.49,5.13-8.28-3.49-14.14-9.9-19.74-16.51A187.12,187.12,0,0,1,599,430.82c-5.15-7.5-12-8.72-18.28-1.82-4.49,4.94-8.94,10.76-10.94,17-4.2,13.08-6.79,26.68-10,40.08A46.19,46.19,0,0,0,559.2,491.18ZM236.71,95.3c2.78-.28,4.56-.52,6.35-.62,24.93-1.41,49.87-3.76,74.81-4,41.51-.37,82.5,4.43,122.14,17.59,30.48,10.12,58.24,24.91,79.78,49.32,32.18,36.45,40.25,77.56,21.79,123-10.69,26.29-28.08,47.95-49.42,66.29-51.69,44.41-112,67-179.89,70.08-2.17.1-4.36,0-7.41,0,1.16,1.26,1.33,1.62,1.58,1.7C339,428,371.94,434.26,406,433c43.6-1.69,81.87-15.57,111.19-49.48,1-1.13,2.2-2.07,3.94-3.69.23,2.25.37,3.37.45,4.49,1.29,19.32,3.68,38.48,9,57.16,3.06,10.78,6.68,21.34,14,30.11a65.91,65.91,0,0,0,5.54,5.22c.66-3.16,1.09-5.28,1.55-7.39,3.06-14.23,6.76-28.31,15.23-40.4a53.21,53.21,0,0,1,12.31-12.11c5.55-4,12.21-3.48,18.81-2.32,5.16.9,6.54,5.14,8.84,8.68a64.35,64.35,0,0,0,4.44,6.63c6.09,7.23,11.94,14.72,18.65,21.34,4.06,4,7.47,2.88,9.73-2.36,2-4.72,4.05-9.61,5-14.62,5.06-28,10-56,14.56-84.14,7.6-46.83,7.21-93.61-2.53-140.13C643.36,146.55,614,92.77,562.29,52.23,528.8,26,491.17,11.74,448.47,10.8A351.46,351.46,0,0,0,315.78,33.31C292.74,42,270.94,53,253.1,70.56A65.7,65.7,0,0,0,236.71,95.3Zm263,161.16c-7.64.59-16.06,1.86-24.46,1.75-14.48-.2-26.85-7.07-39.06-14-18.42-10.47-37.16-20.13-57.93-25.21-35.49-8.68-69.75-4-103.27,9.17-18.14,7.11-35.13,16.21-48.79,30.4-15.45,16.05-23.54,34.84-20.15,57.63,1,6.54,4.86,10.66,10.83,11.45a107.67,107.67,0,0,0,24.71.87c21.51-2.16,41-11.15,60.53-19.68,31.24-13.65,63.67-21.24,97.9-20.81a378.9,378.9,0,0,1,81.61,10.42c6.19,1.44,12,1.62,18.17-.84-1-8.3.47-15.85,7.43-19.74C504.6,270.27,502.19,263.39,499.75,256.46ZM515,167.27l-26.22-23.88c-6.63,7.11-6.23,21.42,0,28.29C493.82,177.23,503.71,175.9,515,167.27Zm17,109.5c2.13-7.32,4.26-14.08,6-20.94.27-1.09-1.28-3.69-2.24-3.83-5-.71-10.14-1.58-15.08-1-8.17.95-11,6.83-7,14a17.69,17.69,0,0,0,6.12,6.22C523.4,273.38,527.46,274.74,532,276.77Zm-70.7,80.73c-2.38-4.57-4.38-8.86-6.78-12.91-2-3.36-5-5.66-9.15-4.22-4.47,1.54-8.9,3.54-9.35,9.16-.57,7.23,2.31,13.47,5.85,20Zm-169.62-256L258,103.69c1,4.56,1.39,8.34,2.63,11.83,2.09,5.92,6.19,8,12.16,6.28C282.62,119,287.56,111.44,291.72,101.47ZM534.91,201c-4.79-8.88-8.89-16.5-13-24.24-6.63,4.73-11.55,11.28-12.92,16.67-1.81,7.12,1.66,11.92,8.9,11.26C523.16,204.22,528.36,202.48,534.91,201ZM376.59,396.65l26.56-8.94c-3.22-8.85-8.23-13.82-16.56-14.77-5.28-.6-9.09,1.64-9.84,6.85S376.59,390.2,376.59,396.65ZM302.76,101.42c-1.08,6.16-.69,11.5,4.37,14.89,4.79,3.2,10.28,3,15.16.14,5.44-3.21,7.67-8.38,7.29-15Zm114.88,11c-4,8.51-1.84,16.26,4.56,18.3,8,2.53,19.1-1.37,24.65-9.15ZM337.41,404.22c-3-5.64-5-10.36-7.87-14.47-2.4-3.44-6.23-3.85-9.59-1-5.24,4.42-6.39,10.65-7.91,17.66,7-.53,12.92-1,18.83-1.43C332.47,404.83,334.07,404.6,337.41,404.22ZM538.15,211.34l-2.17-.55c-2.67,3.64-5.69,7.08-7.93,11-6.09,10.57-.78,19,12.87,18.79ZM341.84,101.75c-3,10-1.21,14.32,5.87,15.68,8.34,1.59,16.41-4.54,17.52-13.86Zm35.33,3.11c-1.11,7.14,3.87,13,12.3,15.4,6.57,1.86,12.47-1.72,16.51-10.52Zm101.57,33.91c0-.55-.07-1.1-.1-1.65l-21.05-10.87c-2.38,6.36-1.95,11.64-.5,17.08,1.11,4.14,3.61,5.17,7,3.53C469.11,144.44,473.87,141.49,478.74,138.77Zm-210,265.7,29.8,2.19a25.21,25.21,0,0,0-15.86-13.08C275.25,391.34,269.55,395.49,268.71,404.47Zm98.83-5.77c-3.22-4.95-5.29-9.29-8.42-12.63-3.54-3.79-9.12-2.8-10.51,1.75s-1.47,9.49-2.27,15.26Zm45.5-15,20-9.21c-3-2.84-4.89-5.86-7.5-6.77-3.65-1.26-8.3-2.2-11.71-1-4.21,1.49-3.07,6.4-2.47,10.17C411.66,379,412.34,381,413,383.69ZM248.59,104.79l-17.43,2.37c.83,4.94,1.3,9.41,2.45,13.7.49,1.81,2.26,4.3,3.74,4.53s4.06-1.71,4.79-3.31C244.44,117,246.1,111.64,248.59,104.79ZM470.23,351.14,488.48,336c-5.43-4.45-13.81-5.17-18.17-2C466.62,336.72,466.42,342.68,470.23,351.14Zm26.4-23L510,313c-5.8-4.42-12.13-5.07-15.51-2C490.66,314.51,491.19,319.86,496.63,328.14ZM517,303.48l10.16-16.86c-7.41-2.43-14-1.16-16.08,2.68C508.9,293.41,510.9,298.68,517,303.48Z" />
	<path d="M434.33,521.45c-1.21,30.46-2.4,60.32-3.61,90.62h-21.4V586.43l-1.29-.26c-6.55,9.3-13.1,18.59-20,28.47l-21.36-28.19-1.19.21v25.4H343.86c-1.46-29.93-2.92-59.81-4.42-90.58,4.78,0,9.85,0,14.92,0,5.83,0,12.84-1.87,17.14.72s5.58,9.69,8.29,14.77c2.48,4.66,5.09,9.26,8.24,15,3.49-6.32,6.46-11.61,9.32-17a41.06,41.06,0,0,0,3.32-7.24c1.55-5.06,4.6-6.77,9.92-6.43C418.35,521.81,426.16,521.45,434.33,521.45Z" />
	<path d="M859.44,593.92c0,4.78-.15,9.56,0,14.33.14,3.22-.89,4.36-4.25,4.27-8.15-.23-16.33-.33-24.47.05-4.15.19-5-1.35-5.15-5.1-1-25.78-2.15-51.56-3.23-77.34-.12-2.78,0-5.58,0-9,19.66-1.44,39.24-4.06,58.25,3.06,12.93,4.85,20,14.47,20.76,28.4s-4.8,24.5-16.93,31.52l-2.8,1.7c6,7.09,11.86,13.92,18,21.07-7.33,3.41-14.71,7-22.22,10.19-.77.33-2.79-.89-3.44-1.9-3.92-6.16-7.61-12.46-11.38-18.72-.57-1-1.12-1.93-1.68-2.9Zm1.7-15.27c8.38-.15,13.6-4.36,13.37-10.8-.23-6.28-4.86-9.49-13.37-8.81Z" />
	<path d="M189.64,593.91c0,4.78-.09,9.57,0,14.34.07,2.86-.69,4.2-3.94,4.12-8.49-.22-17-.13-25.47,0-2.54,0-3.51-.84-3.62-3.43q-1.89-42.64-3.92-85.28a12.76,12.76,0,0,1,.3-2.14h40.67c-.69,12.54-1.38,24.9-2.06,37.26l1.18.32c4.35-13.11,8.69-26.22,13.27-40.06l32.49,7c-5,9.78-9.83,19.17-14.7,28.51-3.91,7.52-7.8,15.06-12,22.45-1.37,2.44-1.33,4.09.64,6.08,5.61,5.68,11,11.53,16.64,17.21a61.94,61.94,0,0,0,5.83,4.59l-28.12,12.6c-5.37-8-10.62-15.85-15.86-23.68Z" />
	<path d="M521.81,560.86c-.18,18.42-3.64,32.31-14.3,43.33-15.29,15.79-39,14.8-53.33-1.83-14.48-16.8-16.75-49.56-4.61-67.62,9.12-13.57,22.23-18.55,38-16.64s25.95,11.41,30.9,26.14C520.62,550.61,521.18,557.52,521.81,560.86Zm-27.57,15.43c-1.34-5-1.93-8.64-3.31-12-1.61-3.88-5-5.63-9.25-5.47-4,.16-7.13,1.83-8.58,5.71-3.46,9.17-2.77,18,2.83,26.17,3.26,4.74,8.44,5.09,11.56.3S492.27,580.73,494.24,576.29Z" />
	<path d="M553.43,582.38V612H534.35l-5-90.44c9.55,0,18.83-.14,28.1.13,1.53,0,3.17,1.66,4.47,2.86,6,5.43,11.82,11,18.49,17.21V521.8H601.3c-1.2,30.36-2.38,60.39-3.6,91.09l-42.62-31.4Z" />
	<path d="M813.92,522c-.79,12.07-1.58,24-2.4,36.52-4.63-.42-9-.87-13.39-1.2-7.29-.55-7.3-.52-7.64,6.81,0,1.14,0,2.29,0,4H811.2c-1.2,5.61-2.27,10.6-3.41,15.91-4.66-.25-9.11-.4-13.53-.77-3.37-.29-5,.87-4.78,4.41.15,2.78,0,5.58,0,9.05l23.14-1.42c-1.18,5.15-2.13,10.28-3.68,15.22-.3,1-2.93,1.72-4.49,1.74-14.82.13-29.63,0-44.45.17-3.68.05-4.4-1.38-4.51-4.66q-1.08-32.43-2.49-64.85c-.29-6.81-.89-13.6-1.38-20.92Z" />
	<path d="M243.83,521.72H306c-.81,12.32-1.59,24.33-2.41,36.76-5.31-.45-10.1-.64-14.81-1.32-4.5-.64-6.61.76-6.13,5.48.17,1.62,0,3.28,0,5.45H303.1c-1,5.26-1.74,9.94-2.92,14.5-.19.71-2.39,1.27-3.66,1.27-3.66,0-7.32-.28-11-.61-2.78-.25-4,.82-3.95,3.62.07,3,0,6,0,9.83l23.15-1.43c-1.18,5.17-2.19,10.16-3.54,15.06a3.81,3.81,0,0,1-2.93,1.92c-15.82.11-31.64,0-47.46.08-3.37,0-3.11-2.15-3.19-4.36-.8-21.63-1.58-43.26-2.47-64.89C244.9,536.12,244.31,529.18,243.83,521.72Z" />
	<path d="M147.58,612.52c-10.55,0-20.49.06-30.43-.11-.87,0-2-1.44-2.5-2.45a39.32,39.32,0,0,1-1.84-5.6l-14.32,9.41c-1.95-3.78-3.89-7.52-5.83-11.29-.6.36-1,.47-1.08.68-3.35,10.69-3.35,10.7-19.42,9,.71-3.2,1.42-6.35,2.1-9.51,5.54-25.51,11.15-51,16.5-76.56.71-3.4,1.71-4.77,5.38-4.66,8.81.27,17.64.21,26.46,0,3.36-.07,4.81.75,5.6,4.41,5.81,26.82,12,53.58,18,80.36C146.61,608.08,147,610,147.58,612.52ZM102.85,573.6l-1.46-.32-7.73,22.84,16.75-2.67c-1.28-3.74-2.14-6.58-3.21-9.34C105.83,580.57,104.3,577.1,102.85,573.6Z" />
	<path d="M66.92,595.33c-1,5.37-1.66,10.32-3,15.06-.39,1.35-2.71,2.64-4.37,3.08C29.17,621.41.77,599.74,0,568.18c-.65-27.26,16.25-46,43.48-47.83a136.85,136.85,0,0,1,18.44.41c1.32.09,3.55,1.77,3.63,2.84.81,11.24,1.26,22.5,1.83,34-4.07,0-7.7-.29-11.27.06-8,.76-14.62,4.11-17.49,12S36,585.45,42.43,592c4.28,4.36,9.71,5.62,15.57,5.08C60.77,596.8,63.49,596,66.92,595.33Z" />
	<path d="M744.49,558.08l-17.88-.84c-.36,2.89-.83,5.44-1,8-.82,14.12-1.68,28.25-2.24,42.38-.14,3.71-1.36,4.86-5,4.75-7.78-.24-15.58-.07-23.93-.07-.5-9.89-.93-19.31-1.45-28.73-.41-7.47-1-14.94-1.36-22.42-.14-3-1.37-4.07-4.37-3.78-4.29.42-8.61.51-14,.79V521.54h71.22Z" />
	<path d="M664.41,558c-1-.07-2.14-.11-3.27-.22-3.68-.38-7.7-.1-8.86,3.75-.9,3-.22,6.64.61,9.78.65,2.46,2.67,4.55,4,6.87,9.36,16.49,1.86,32.33-17,35-5.18.75-10.92,1-15.81-.51-5.9-1.81-3.26-8.87-5.46-13.22-.56-1.12-.58-2.5-.95-4.22,3.12.34,5.94,1.19,8.57.79s6.64-1.45,7.44-3.32c1.1-2.58.88-7.06-.76-9.2-3.59-4.68-8.3-8.56-12.8-12.47-8.51-7.38-12.8-16.34-11.53-27.77,1.08-9.64,6.12-16.45,14.79-20.37,12.25-5.53,25-4.6,37.71-1.91a3.76,3.76,0,0,1,2.39,2.54c.64,11.12,1.07,22.26,1.53,33.39C665.06,557.25,664.73,557.53,664.41,558Z" />
	<path class="cls-1" d="M236.71,95.3A65.7,65.7,0,0,1,253.1,70.56C270.94,53,292.74,42,315.78,33.31A351.46,351.46,0,0,1,448.47,10.8c42.7.94,80.33,15.16,113.82,41.43,51.68,40.54,81.07,94.32,94.33,157.71,9.74,46.52,10.13,93.3,2.53,140.13-4.57,28.09-9.5,56.13-14.56,84.14-.9,5-2.91,9.9-5,14.62-2.26,5.24-5.67,6.38-9.73,2.36-6.71-6.62-12.56-14.11-18.65-21.34a64.35,64.35,0,0,1-4.44-6.63c-2.3-3.54-3.68-7.78-8.84-8.68-6.6-1.16-13.26-1.72-18.81,2.32A53.21,53.21,0,0,0,566.86,429c-8.47,12.09-12.17,26.17-15.23,40.4-.46,2.11-.89,4.23-1.55,7.39a65.91,65.91,0,0,1-5.54-5.22c-7.35-8.77-11-19.33-14-30.11-5.3-18.68-7.69-37.84-9-57.16-.08-1.12-.22-2.24-.45-4.49-1.74,1.62-3,2.56-3.94,3.69C487.82,417.38,449.55,431.26,406,433c-34,1.31-67-4.92-99.51-14.26-.25-.08-.42-.44-1.58-1.7,3.05,0,5.24.09,7.41,0,67.84-3.13,128.2-25.67,179.89-70.08,21.34-18.34,38.73-40,49.42-66.29,18.46-45.44,10.39-86.55-21.79-123-21.54-24.41-49.3-39.2-79.78-49.32-39.64-13.16-80.63-18-122.14-17.59-24.94.22-49.88,2.57-74.81,4C241.27,94.78,239.49,95,236.71,95.3ZM401.38,52.67c-1.07-3.87-1.63-7.7-3.19-11.07-1.77-3.84-5.39-3.81-7.78-.42-3.55,5.06-3.51,16.91.07,21.91,2.33,3.25,5.71,3.44,7.52-.07C399.61,59.88,400.26,56.24,401.38,52.67Zm39.26,2.27c-.93-3.76-1.43-7.23-2.74-10.35a6.39,6.39,0,0,0-4.33-3.34c-1.23-.14-3.29,1.62-4,3-3.47,6.95-3.48,14.07.39,20.88,2.14,3.78,5.56,3.84,7.57-.07C439.14,62,439.67,58.28,440.64,54.94Z" />
	<path class="cls-1" d="M499.75,256.46c2.44,6.93,4.85,13.81,7.52,21.4-7,3.89-8.46,11.44-7.43,19.74-6.21,2.46-12,2.28-18.17.84A378.9,378.9,0,0,0,400.06,288c-34.23-.43-66.66,7.16-97.9,20.81-19.52,8.53-39,17.52-60.53,19.68a107.67,107.67,0,0,1-24.71-.87c-6-.79-9.85-4.91-10.83-11.45-3.39-22.79,4.7-41.58,20.15-57.63,13.66-14.19,30.65-23.29,48.79-30.4C308.55,215,342.81,210.31,378.3,219c20.77,5.08,39.51,14.74,57.93,25.21,12.21,6.94,24.58,13.81,39.06,14C483.69,258.32,492.11,257.05,499.75,256.46ZM353.34,240c-8.57,1-17.26,1.53-25.7,3.22-17.6,3.51-33.51,10.92-46.86,23.1-1.51,1.37-1.37,4.55-2,6.88,2.55.58,5.09,1.51,7.65,1.59,1.19,0,2.39-1.64,3.65-2.43,6.47-4.05,12.62-8.78,19.5-12,25.94-12,52.59-10.85,79.56-3.54,22.64,6.14,45.32,12.2,68.19,17.4,8.77,2,18.1,1.76,27.19,1.94,1.77,0,3.6-2.69,5.4-4.14-1.72-1.77-3.23-3.86-5.24-5.21-1.22-.82-3.21-.51-4.86-.67-5.79-.58-11.73-.49-17.34-1.82-20.88-5-41.72-10.15-62.45-15.71C384.72,244.55,369.42,240.68,353.34,240Z" />
	<path class="cls-1" d="M515,167.27c-11.29,8.63-21.18,10-26.22,4.41-6.23-6.87-6.63-21.18,0-28.29Z" />
	<path class="cls-1" d="M532,276.77c-4.58-2-8.64-3.39-12.21-5.55a17.69,17.69,0,0,1-6.12-6.22c-4-7.18-1.21-13.06,7-14,4.94-.57,10.1.3,15.08,1,1,.14,2.51,2.74,2.24,3.83C536.3,262.69,534.17,269.45,532,276.77Z" />
	<path class="cls-1" d="M461.34,357.5l-19.43,12c-3.54-6.51-6.42-12.75-5.85-20,.45-5.62,4.88-7.62,9.35-9.16,4.18-1.44,7.16.86,9.15,4.22C457,348.64,459,352.93,461.34,357.5Z" />
	<path class="cls-1" d="M291.72,101.47c-4.16,10-9.1,17.51-18.92,20.33-6,1.71-10.07-.36-12.16-6.28C259.4,112,259,108.25,258,103.69Z" />
	<path class="cls-1" d="M534.91,201c-6.55,1.47-11.75,3.21-17.07,3.69-7.24.66-10.71-4.14-8.9-11.26,1.37-5.39,6.29-11.94,12.92-16.67C526,184.51,530.12,192.13,534.91,201Z" />
	<path class="cls-1" d="M376.59,396.65c0-6.45-.57-11.75.16-16.86s4.56-7.45,9.84-6.85c8.33.95,13.34,5.92,16.56,14.77Z" />
	<path class="cls-1" d="M302.76,101.42h26.82c.38,6.65-1.85,11.82-7.29,15-4.88,2.87-10.37,3.06-15.16-.14C302.07,112.92,301.68,107.58,302.76,101.42Z" />
	<path class="cls-1" d="M417.64,112.45l29.21,9.15c-5.55,7.78-16.69,11.68-24.65,9.15C415.8,128.71,413.63,121,417.64,112.45Z" />
	<path class="cls-1" d="M337.41,404.22c-3.34.38-4.94.61-6.54.74-5.91.47-11.83.9-18.83,1.43,1.52-7,2.67-13.24,7.91-17.66,3.36-2.83,7.19-2.42,9.59,1C332.41,393.86,334.41,398.58,337.41,404.22Z" />
	<path class="cls-1" d="M538.15,211.34l2.77,29.21c-13.65.17-19-8.22-12.87-18.79,2.24-3.89,5.26-7.33,7.93-11Z" />
	<path class="cls-1" d="M341.84,101.75l23.39,1.82c-1.11,9.32-9.18,15.45-17.52,13.86C340.63,116.07,338.88,111.72,341.84,101.75Z" />
	<path class="cls-1" d="M377.17,104.86,406,109.74c-4,8.8-9.94,12.38-16.51,10.52C381,117.89,376.06,112,377.17,104.86Z" />
	<path class="cls-1" d="M478.74,138.77c-4.87,2.72-9.63,5.67-14.64,8.09-3.4,1.64-5.9.61-7-3.53-1.45-5.44-1.88-10.72.5-17.08l21.05,10.87C478.67,137.67,478.71,138.22,478.74,138.77Z" />
	<path class="cls-1" d="M268.71,404.47c.84-9,6.54-13.13,13.94-10.89a25.21,25.21,0,0,1,15.86,13.08Z" />
	<path class="cls-1" d="M367.54,398.7l-21.2,4.38c.8-5.77.89-10.71,2.27-15.26s7-5.54,10.51-1.75C362.25,389.41,364.32,393.75,367.54,398.7Z" />
	<path class="cls-1" d="M413,383.69c-.7-2.73-1.38-4.73-1.71-6.79-.6-3.77-1.74-8.68,2.47-10.17,3.41-1.22,8.06-.28,11.71,1,2.61.91,4.49,3.93,7.5,6.77Z" />
	<path class="cls-1" d="M248.59,104.79c-2.49,6.85-4.15,12.21-6.45,17.29-.73,1.6-3.34,3.53-4.79,3.31s-3.25-2.72-3.74-4.53c-1.15-4.29-1.62-8.76-2.45-13.7Z" />
	<path class="cls-1" d="M470.23,351.14c-3.81-8.46-3.61-14.42.08-17.11,4.36-3.17,12.74-2.45,18.17,2Z" />
	<path class="cls-1" d="M496.63,328.14c-5.44-8.28-6-13.63-2.19-17.12,3.38-3.11,9.71-2.46,15.51,2Z" />
	<path class="cls-1" d="M517,303.48c-6.12-4.8-8.12-10.07-5.92-14.18,2-3.84,8.67-5.11,16.08-2.68Z" />
	<path class="bg" d="M861.14,578.65V559c8.51-.68,13.14,2.53,13.37,8.81C874.74,574.29,869.52,578.5,861.14,578.65Z" />
	<path class="bg" d="M494.24,576.29c-2,4.44-3.68,10-6.75,14.75s-8.3,4.44-11.56-.3c-5.6-8.13-6.29-17-2.83-26.17,1.45-3.88,4.56-5.55,8.58-5.71,4.26-.16,7.64,1.59,9.25,5.47C492.31,567.65,492.9,571.3,494.24,576.29Z" />
	<path class="bg" d="M102.85,573.6c1.45,3.5,3,7,4.35,10.51,1.07,2.76,1.93,5.6,3.21,9.34l-16.75,2.67,7.73-22.84Z" />
	<path d="M401.38,52.67c-1.12,3.57-1.77,7.21-3.38,10.35-1.81,3.51-5.19,3.32-7.52.07-3.58-5-3.62-16.85-.07-21.91,2.39-3.39,6-3.42,7.78.42C399.75,45,400.31,48.8,401.38,52.67Z" />
	<path d="M440.64,54.94c-1,3.34-1.5,7-3.1,10.14-2,3.91-5.43,3.85-7.57.07-3.87-6.81-3.86-13.93-.39-20.88.7-1.4,2.76-3.16,4-3a6.39,6.39,0,0,1,4.33,3.34C439.21,47.71,439.71,51.18,440.64,54.94Z" />
	<path d="M353.34,240c16.08.68,31.38,4.55,46.7,8.65,20.73,5.56,41.57,10.75,62.45,15.71,5.61,1.33,11.55,1.24,17.34,1.82,1.65.16,3.64-.15,4.86.67,2,1.35,3.52,3.44,5.24,5.21-1.8,1.45-3.63,4.18-5.4,4.14-9.09-.18-18.42.06-27.19-1.94-22.87-5.2-45.55-11.26-68.19-17.4-27-7.31-53.62-8.47-79.56,3.54-6.88,3.18-13,7.91-19.5,12-1.26.79-2.46,2.47-3.65,2.43-2.56-.08-5.1-1-7.65-1.59.62-2.33.48-5.51,2-6.88,13.35-12.18,29.26-19.59,46.86-23.1C336.08,241.53,344.77,241,353.34,240Z" />
</svg>
