<svg id="Layer_1" data-name="Layer 1" xmlns="http://www.w3.org/2000/svg" viewBox="0 0 901.46 617.46">
	<defs>
		<style>
			.cls-1{fill:#fff;}
			.bg{fill:transparent;}
		</style>
	</defs>
	<path class="bg" d="M942.58,787h-960V-173h960ZM559.2,491.18a46.19,46.19,0,0,1,.61-5.12c3.2-13.4,5.79-27,10-40.08,2-6.22,6.45-12,10.94-17,6.27-6.9,13.13-5.68,18.28,1.82A187.12,187.12,0,0,0,610.45,446c5.6,6.61,11.46,13,19.74,16.51,7,2.94,12.32,1.63,15.49-5.13a146.71,146.71,0,0,0,8.86-23.26c8.57-31.42,12.88-63.64,17.12-95.85,6.12-46.37,4.33-92.47-6.22-138.06-14.38-62.11-44.19-114.9-94.69-155.06C537.9,19,501.07,3,458.87.59A351.86,351.86,0,0,0,297.51,29.25C277.2,38,258.7,49.63,243,65.48c-12.4,12.48-18.17,28.14-21.43,44.65-1.5,7.59,1.24,15.64,6.44,22,4.85,5.92,12.93,6.23,18.6.9a87.78,87.78,0,0,0,6.38-7.43c12.27,11.67,21.89,10.45,40.9-5,12,10.58,23.34,11.44,37.66,3.13,1-.57,3.06-.09,4.17.61,10.14,6.47,22.5,5.65,31.48-2.22.84-.74,1.77-1.36,2.62-2,13.33,12.08,21.4,14,35.28,8.6,8,14.32,16,16.29,38.39,10.1,3.21,5.91,5.19,12.7,9.62,16.89,5.55,5.23,12.84.76,18.32-.55,2.8,7.74,4.84,15.3,8.2,22.22,3.86,7.93,11.77,9.3,20.24,9-2.33,7.5-3.13,14.31.78,20.89,4,6.79,10.87,7.89,18.34,8.26-4.15,8-6.12,15.36-2.82,23.6-7.3,2.23-14.2,4.54-21.22,6.43a56.61,56.61,0,0,1-43-5.16c-8.49-4.61-16.92-9.32-25.43-13.89-16.66-8.95-34.09-15.95-52.69-19.66-34.21-6.81-67.31-2.06-99.58,10.15-21,8-40.75,18.22-56.46,34.85-17,18-25.39,39.14-22.5,64.2,1.44,12.45,8.89,19.84,20.5,22.07a97.38,97.38,0,0,0,26.25,1.19c20.17-1.72,38.77-9.31,57.08-17.44,28.23-12.55,57.31-21.61,88.48-22.78,25.62-1,50.91,1.65,76,6.52,6.13,1.19,12.23,2.54,18.31,3.81-.3,4.34-.54,7.93-.8,11.65-9.42.58-18.45,1.45-23.17,11.28-8.27-5.09-15.7-3.37-23.22,1.25-8.19,5-9.72,12.82-9.18,21.62-10.85-1-20.52-.94-24.91,10.5-21.21-6.57-28.13-4.34-34.62,10.93-13.91-6.55-20.47-3.89-27.69,6.25-5.73-5.57-12.21-8.47-20.26-5.34-7.67,3-10.53,10.07-13.8,16.23-5.18-3.23-9.86-6.73-15-9.21-8.7-4.18-17.43-3.18-24.92,2.78-6.92,5.49-7.51,13.44-5.78,21.46a8.28,8.28,0,0,0,4.13,5.27c10.8,4.35,21.65,8.7,32.74,12.22,39.19,12.44,79.14,19.9,120.52,16.69,35.12-2.73,67.09-13.58,94.17-36.9a19.48,19.48,0,0,1,2.37-1.45c1.2,7.18,2.12,13.91,3.47,20.55,3.62,17.69,8.17,35.07,18.57,50.26C540.31,484,548,489.84,559.2,491.18ZM434.33,521.45c-8.17,0-16,.36-23.74-.13-5.32-.34-8.37,1.37-9.92,6.43a41.06,41.06,0,0,1-3.32,7.24c-2.86,5.35-5.83,10.64-9.32,17-3.15-5.71-5.76-10.31-8.24-15-2.71-5.08-4.09-12.23-8.29-14.77s-11.31-.69-17.14-.72c-5.07,0-10.14,0-14.92,0,1.5,30.77,3,60.65,4.42,90.58h21.57v-25.4l1.19-.21L388,614.64c6.95-9.88,13.5-19.17,20-28.47l1.29.26v25.64h21.4C431.93,581.77,433.12,551.91,434.33,521.45Zm425.11,72.47,1.46-.33c.56,1,1.11,1.94,1.68,2.9,3.77,6.26,7.46,12.56,11.38,18.72.65,1,2.67,2.23,3.44,1.9,7.51-3.24,14.89-6.78,22.22-10.19-6.11-7.15-11.93-14-18-21.07l2.8-1.7c12.13-7,17.74-17.54,16.93-31.52s-7.83-23.55-20.76-28.4c-19-7.12-38.59-4.5-58.25-3.06,0,3.38-.1,6.18,0,9,1.08,25.78,2.26,51.56,3.23,77.34.14,3.75,1,5.29,5.15,5.1,8.14-.38,16.32-.28,24.47-.05,3.36.09,4.39-1,4.25-4.27C859.29,603.48,859.44,598.7,859.44,593.92Zm-669.8,0,1.4-.13c5.24,7.83,10.49,15.65,15.86,23.68L235,604.86a61.94,61.94,0,0,1-5.83-4.59c-5.6-5.68-11-11.53-16.64-17.21-2-2-2-3.64-.64-6.08,4.16-7.39,8.05-14.93,12-22.45,4.87-9.34,9.66-18.73,14.7-28.51l-32.49-7c-4.58,13.84-8.92,27-13.27,40.06l-1.18-.32c.68-12.36,1.37-24.72,2.06-37.26H153a12.76,12.76,0,0,0-.3,2.14q2,42.64,3.92,85.28c.11,2.59,1.08,3.46,3.62,3.43,8.49-.1,17-.19,25.47,0,3.25.08,4-1.26,3.94-4.12C189.55,603.48,189.64,598.69,189.64,593.91Zm332.17-33c-.63-3.34-1.19-10.25-3.33-16.62-5-14.73-15.05-24.22-30.9-26.14s-28.89,3.07-38,16.64c-12.14,18.06-9.87,50.82,4.61,67.62,14.33,16.63,38,17.62,53.33,1.83C518.17,593.17,521.63,579.28,521.81,560.86Zm31.62,21.52,1.65-.89,42.62,31.4c1.22-30.7,2.4-60.73,3.6-91.09H580.37v19.92c-6.67-6.23-12.53-11.78-18.49-17.21-1.3-1.2-2.94-2.82-4.47-2.86-9.27-.27-18.55-.13-28.1-.13l5,90.44h19.08ZM813.92,522H751.65c.49,7.32,1.09,14.11,1.38,20.92q1.37,32.43,2.49,64.85c.11,3.28.83,4.71,4.51,4.66,14.82-.21,29.63,0,44.45-.17,1.56,0,4.19-.76,4.49-1.74,1.55-4.94,2.5-10.07,3.68-15.22l-23.14,1.42c0-3.47.12-6.27,0-9.05-.2-3.54,1.41-4.7,4.78-4.41,4.42.37,8.87.52,13.53.77,1.14-5.31,2.21-10.3,3.41-15.91H790.48c0-1.7,0-2.85,0-4,.34-7.33.35-7.36,7.64-6.81,4.38.33,8.76.78,13.39,1.2C812.34,545.94,813.13,534,813.92,522Zm-570.09-.25c.48,7.46,1.07,14.4,1.35,21.36.89,21.63,1.67,43.26,2.47,64.89.08,2.21-.18,4.38,3.19,4.36,15.82-.06,31.64,0,47.46-.08a3.81,3.81,0,0,0,2.93-1.92c1.35-4.9,2.36-9.89,3.54-15.06l-23.15,1.43c0-3.86.06-6.85,0-9.83-.07-2.8,1.17-3.87,3.95-3.62,3.64.33,7.3.59,11,.61,1.27,0,3.47-.56,3.66-1.27,1.18-4.56,1.92-9.24,2.92-14.5H282.68c0-2.17.14-3.83,0-5.45-.48-4.72,1.63-6.12,6.13-5.48,4.71.68,9.5.87,14.81,1.32.82-12.43,1.6-24.44,2.41-36.76Zm-96.25,90.8c-.56-2.53-1-4.44-1.39-6.33-6-26.78-12.18-53.54-18-80.36-.79-3.66-2.24-4.48-5.6-4.41-8.82.19-17.65.25-26.46,0-3.67-.11-4.67,1.26-5.38,4.66-5.35,25.55-11,51.05-16.5,76.56-.68,3.16-1.39,6.31-2.1,9.51,16.07,1.73,16.07,1.72,19.42-9,.06-.21.48-.32,1.08-.68,1.94,3.77,3.88,7.51,5.83,11.29l14.32-9.41a39.32,39.32,0,0,0,1.84,5.6c.53,1,1.63,2.43,2.5,2.45C127.09,612.58,137,612.52,147.58,612.52ZM66.92,595.33c-3.43.68-6.15,1.47-8.92,1.72-5.86.54-11.29-.72-15.57-5.08-6.4-6.52-6.69-14.36-3.79-22.28s9.52-11.23,17.49-12c3.57-.35,7.2-.06,11.27-.06-.57-11.54-1-22.8-1.83-34-.08-1.07-2.31-2.75-3.63-2.84a136.85,136.85,0,0,0-18.44-.41C16.27,522.19-.63,540.92,0,568.18c.75,31.56,29.15,53.23,59.51,45.29,1.66-.44,4-1.73,4.37-3.08C65.26,605.65,65.9,600.7,66.92,595.33Zm677.57-37.25V521.54H673.27v36.62c5.38-.28,9.7-.37,14-.79,3-.29,4.23.77,4.37,3.78.35,7.48,1,15,1.36,22.42.52,9.42,1,18.84,1.45,28.73,8.35,0,16.15-.17,23.93.07,3.66.11,4.88-1,5-4.75.56-14.13,1.42-28.26,2.24-42.38.15-2.56.62-5.11,1-8ZM664.41,558c.32-.5.65-.78.64-1-.46-11.13-.89-22.27-1.53-33.39a3.76,3.76,0,0,0-2.39-2.54c-12.72-2.69-25.46-3.62-37.71,1.91-8.67,3.92-13.71,10.73-14.79,20.37-1.27,11.43,3,20.39,11.53,27.77,4.5,3.91,9.21,7.79,12.8,12.47,1.64,2.14,1.86,6.62.76,9.2-.8,1.87-4.75,2.9-7.44,3.32s-5.45-.45-8.57-.79c.37,1.72.39,3.1.95,4.22,2.2,4.35-.44,11.41,5.46,13.22,4.89,1.49,10.63,1.26,15.81.51,18.81-2.71,26.31-18.55,17-35-1.32-2.32-3.34-4.41-4-6.87-.83-3.14-1.51-6.83-.61-9.78,1.16-3.85,5.18-4.13,8.86-3.75C662.27,557.92,663.4,558,664.41,558Z" />
	<use href="#Monster-Logo" x="180" y="0" width="500" height="500" />
	<g class="Monster-Logo-words__text">
		<path d="M434.33,521.45c-1.21,30.46-2.4,60.32-3.61,90.62h-21.4V586.43l-1.29-.26c-6.55,9.3-13.1,18.59-20,28.47l-21.36-28.19-1.19.21v25.4H343.86c-1.46-29.93-2.92-59.81-4.42-90.58,4.78,0,9.85,0,14.92,0,5.83,0,12.84-1.87,17.14.72s5.58,9.69,8.29,14.77c2.48,4.66,5.09,9.26,8.24,15,3.49-6.32,6.46-11.61,9.32-17a41.06,41.06,0,0,0,3.32-7.24c1.55-5.06,4.6-6.77,9.92-6.43C418.35,521.81,426.16,521.45,434.33,521.45Z" />
		<path d="M859.44,593.92c0,4.78-.15,9.56,0,14.33.14,3.22-.89,4.36-4.25,4.27-8.15-.23-16.33-.33-24.47.05-4.15.19-5-1.35-5.15-5.1-1-25.78-2.15-51.56-3.23-77.34-.12-2.78,0-5.58,0-9,19.66-1.44,39.24-4.06,58.25,3.06,12.93,4.85,20,14.47,20.76,28.4s-4.8,24.5-16.93,31.52l-2.8,1.7c6,7.09,11.86,13.92,18,21.07-7.33,3.41-14.71,7-22.22,10.19-.77.33-2.79-.89-3.44-1.9-3.92-6.16-7.61-12.46-11.38-18.72-.57-1-1.12-1.93-1.68-2.9Zm1.7-15.27c8.38-.15,13.6-4.36,13.37-10.8-.23-6.28-4.86-9.49-13.37-8.81Z" />
		<path d="M189.64,593.91c0,4.78-.09,9.57,0,14.34.07,2.86-.69,4.2-3.94,4.12-8.49-.22-17-.13-25.47,0-2.54,0-3.51-.84-3.62-3.43q-1.89-42.64-3.92-85.28a12.76,12.76,0,0,1,.3-2.14h40.67c-.69,12.54-1.38,24.9-2.06,37.26l1.18.32c4.35-13.11,8.69-26.22,13.27-40.06l32.49,7c-5,9.78-9.83,19.17-14.7,28.51-3.91,7.52-7.8,15.06-12,22.45-1.37,2.44-1.33,4.09.64,6.08,5.61,5.68,11,11.53,16.64,17.21a61.94,61.94,0,0,0,5.83,4.59l-28.12,12.6c-5.37-8-10.62-15.85-15.86-23.68Z" />
		<path d="M521.81,560.86c-.18,18.42-3.64,32.31-14.3,43.33-15.29,15.79-39,14.8-53.33-1.83-14.48-16.8-16.75-49.56-4.61-67.62,9.12-13.57,22.23-18.55,38-16.64s25.95,11.41,30.9,26.14C520.62,550.61,521.18,557.52,521.81,560.86Zm-27.57,15.43c-1.34-5-1.93-8.64-3.31-12-1.61-3.88-5-5.63-9.25-5.47-4,.16-7.13,1.83-8.58,5.71-3.46,9.17-2.77,18,2.83,26.17,3.26,4.74,8.44,5.09,11.56.3S492.27,580.73,494.24,576.29Z" />
		<path d="M553.43,582.38V612H534.35l-5-90.44c9.55,0,18.83-.14,28.1.13,1.53,0,3.17,1.66,4.47,2.86,6,5.43,11.82,11,18.49,17.21V521.8H601.3c-1.2,30.36-2.38,60.39-3.6,91.09l-42.62-31.4Z" />
		<path d="M813.92,522c-.79,12.07-1.58,24-2.4,36.52-4.63-.42-9-.87-13.39-1.2-7.29-.55-7.3-.52-7.64,6.81,0,1.14,0,2.29,0,4H811.2c-1.2,5.61-2.27,10.6-3.41,15.91-4.66-.25-9.11-.4-13.53-.77-3.37-.29-5,.87-4.78,4.41.15,2.78,0,5.58,0,9.05l23.14-1.42c-1.18,5.15-2.13,10.28-3.68,15.22-.3,1-2.93,1.72-4.49,1.74-14.82.13-29.63,0-44.45.17-3.68.05-4.4-1.38-4.51-4.66q-1.08-32.43-2.49-64.85c-.29-6.81-.89-13.6-1.38-20.92Z" />
		<path d="M243.83,521.72H306c-.81,12.32-1.59,24.33-2.41,36.76-5.31-.45-10.1-.64-14.81-1.32-4.5-.64-6.61.76-6.13,5.48.17,1.62,0,3.28,0,5.45H303.1c-1,5.26-1.74,9.94-2.92,14.5-.19.71-2.39,1.27-3.66,1.27-3.66,0-7.32-.28-11-.61-2.78-.25-4,.82-3.95,3.62.07,3,0,6,0,9.83l23.15-1.43c-1.18,5.17-2.19,10.16-3.54,15.06a3.81,3.81,0,0,1-2.93,1.92c-15.82.11-31.64,0-47.46.08-3.37,0-3.11-2.15-3.19-4.36-.8-21.63-1.58-43.26-2.47-64.89C244.9,536.12,244.31,529.18,243.83,521.72Z" />
		<path d="M147.58,612.52c-10.55,0-20.49.06-30.43-.11-.87,0-2-1.44-2.5-2.45a39.32,39.32,0,0,1-1.84-5.6l-14.32,9.41c-1.95-3.78-3.89-7.52-5.83-11.29-.6.36-1,.47-1.08.68-3.35,10.69-3.35,10.7-19.42,9,.71-3.2,1.42-6.35,2.1-9.51,5.54-25.51,11.15-51,16.5-76.56.71-3.4,1.71-4.77,5.38-4.66,8.81.27,17.64.21,26.46,0,3.36-.07,4.81.75,5.6,4.41,5.81,26.82,12,53.58,18,80.36C146.61,608.08,147,610,147.58,612.52ZM102.85,573.6l-1.46-.32-7.73,22.84,16.75-2.67c-1.28-3.74-2.14-6.58-3.21-9.34C105.83,580.57,104.3,577.1,102.85,573.6Z" />
		<path d="M66.92,595.33c-1,5.37-1.66,10.32-3,15.06-.39,1.35-2.71,2.64-4.37,3.08C29.17,621.41.77,599.74,0,568.18c-.65-27.26,16.25-46,43.48-47.83a136.85,136.85,0,0,1,18.44.41c1.32.09,3.55,1.77,3.63,2.84.81,11.24,1.26,22.5,1.83,34-4.07,0-7.7-.29-11.27.06-8,.76-14.62,4.11-17.49,12S36,585.45,42.43,592c4.28,4.36,9.71,5.62,15.57,5.08C60.77,596.8,63.49,596,66.92,595.33Z" />
		<path d="M744.49,558.08l-17.88-.84c-.36,2.89-.83,5.44-1,8-.82,14.12-1.68,28.25-2.24,42.38-.14,3.71-1.36,4.86-5,4.75-7.78-.24-15.58-.07-23.93-.07-.5-9.89-.93-19.31-1.45-28.73-.41-7.47-1-14.94-1.36-22.42-.14-3-1.37-4.07-4.37-3.78-4.29.42-8.61.51-14,.79V521.54h71.22Z" />
		<path d="M664.41,558c-1-.07-2.14-.11-3.27-.22-3.68-.38-7.7-.1-8.86,3.75-.9,3-.22,6.64.61,9.78.65,2.46,2.67,4.55,4,6.87,9.36,16.49,1.86,32.33-17,35-5.18.75-10.92,1-15.81-.51-5.9-1.81-3.26-8.87-5.46-13.22-.56-1.12-.58-2.5-.95-4.22,3.12.34,5.94,1.19,8.57.79s6.64-1.45,7.44-3.32c1.1-2.58.88-7.06-.76-9.2-3.59-4.68-8.3-8.56-12.8-12.47-8.51-7.38-12.8-16.34-11.53-27.77,1.08-9.64,6.12-16.45,14.79-20.37,12.25-5.53,25-4.6,37.71-1.91a3.76,3.76,0,0,1,2.39,2.54c.64,11.12,1.07,22.26,1.53,33.39C665.06,557.25,664.73,557.53,664.41,558Z" />
	</g>
</svg>
