<svg id="Layer_1" data-name="Layer 1" xmlns="http://www.w3.org/2000/svg" viewBox="0 0 482.88 491.28">
	<path d="M362.22,491.28h-366V0H232.38c-2.55.14-5.1.31-7.65.43a346.06,346.06,0,0,0-46.06,5.29,358.19,358.19,0,0,0-73.33,21.86c-16.51,6.86-32.06,15.36-46,26.66-6.5,5.28-12.77,10.81-17.93,17.46C34.34,80.82,30,91.24,27.22,102.35a65.35,65.35,0,0,0-2.1,10.92c-.49,7,2.22,13.13,6.52,18.57,4.55,5.76,12,6.69,17.73,2.09a41.16,41.16,0,0,0,4.49-4.65c1-1.14,2-2.38,2.91-3.54,1.83,1.43,3.5,2.85,5.29,4.11a18.1,18.1,0,0,0,18,2.08,56.52,56.52,0,0,0,13.16-7.79c1.53-1.14,3-2.33,4.51-3.47,1.48,1.13,2.84,2.24,4.28,3.25,5.62,3.94,11.75,6.07,18.72,5.2A34.26,34.26,0,0,0,134,124.47a5.42,5.42,0,0,1,6.14.16c10.17,6.13,21.66,5.23,30.77-2.36.89-.73,1.82-1.42,2.78-2.17.39.34.7.65,1.05.91,3.37,2.49,6.61,5.18,10.16,7.39a20.4,20.4,0,0,0,14.74,2.87A83.11,83.11,0,0,0,208,129c.7-.2,1.06-.2,1.42.5.48.92,1.07,1.77,1.62,2.66,4.91,7.92,12.1,11,21.17,9.69,4.69-.69,9.32-1.77,14-2.79.95-.2,1.36,0,1.74.81,1.17,2.58,2.4,5.13,3.62,7.69a28.92,28.92,0,0,0,4.92,7.62,9,9,0,0,0,8.62,2.8c2.15-.39,4.25-1.09,6.36-1.69,1.25-.35,2.48-.78,3.79-1.19.23.6.4,1,.55,1.49,1.92,5.46,3.83,10.92,5.77,16.38.42,1.16,1,2.27,1.46,3.41,2.79,6.53,8.12,9.24,14.84,9.82,1.9.17,3.81.2,5.79.3-.13.48-.24.9-.36,1.31A31.59,31.59,0,0,0,302,199.91a16.24,16.24,0,0,0,12.32,14.45c2.72.69,5.56.95,8.46,1.42-3.8,7.34-6.08,15-2.7,23.36-2.67.83-5.2,1.69-7.77,2.41-6.42,1.8-12.78,3.86-19.29,5.21-5.34,1.1-10.81,1.58-16.17,2.71a350.18,350.18,0,0,1-68.59,8.12,214.93,214.93,0,0,1-38-2.53,229.37,229.37,0,0,1-46.44-12.88c-10.36-4.07-20.54-8.61-30.84-12.87-14.86-6.15-30-11.11-46.24-12.23a90.1,90.1,0,0,0-26,1.62c-8.19,1.84-14.29,6.39-17.42,14.41A37.09,37.09,0,0,0,1.19,243.9,73.48,73.48,0,0,0,9,283.84c6.65,12.93,16.22,23.4,27.6,32.3s23.83,15.32,37,20.72c21.63,8.88,44,14.77,67.44,15.8a162.32,162.32,0,0,0,38.42-2.85,177.63,177.63,0,0,0,47.6-16.88c10.29-5.32,20.41-11,30.58-16.51a59.55,59.55,0,0,1,22.19-7.21c1.92-.22,3.88-.55,5.85.39-.26,3.79-.52,7.61-.77,11.35-3.1.39-6.09.65-9,1.15-6.18,1.06-11.05,4.06-13.94,9.82a1.83,1.83,0,0,1-.29.36l-1.32-.71A17.49,17.49,0,0,0,250,329.36a26.93,26.93,0,0,0-14.79,6.84,16.17,16.17,0,0,0-4.54,6.95,29.5,29.5,0,0,0-1.37,10.76c0,.42,0,.83,0,1-3.31,0-6.47-.12-9.62,0-7.05.33-12.28,3.44-15,10.21a4.14,4.14,0,0,1-.3.53l-1.87-.55a62.72,62.72,0,0,0-14.66-2.88c-6.06-.27-10.88,1.94-14.16,7.09-1.28,2-2.3,4.2-3.44,6.31-.16.3-.31.6-.44.86-2.08-.79-4-1.61-6-2.27a18.06,18.06,0,0,0-10.49-.66c-3.81,1-6.53,3.59-9,6.51-.73.87-1.42,1.79-2.16,2.74-.79-.69-1.51-1.32-2.24-1.93-9.79-8.31-21-4.34-26.23,3.17-1.46,2.09-2.66,4.37-3.94,6.57-.58,1-1.08,2-1.65,3.12-1-.62-1.85-1.19-2.73-1.72-4.06-2.48-8-5.16-12.21-7.36a21.25,21.25,0,0,0-19-.91c-5.59,2.41-10.08,6.05-11.86,12.21a25.53,25.53,0,0,0-.16,11.76,8.35,8.35,0,0,0,5.68,6.93c2.78,1,5.49,2.2,8.24,3.27,37.07,14.46,75.22,24.07,115.14,25.64a223.52,223.52,0,0,0,51-3.52c26.7-5.12,50.73-15.91,71.48-33.69a27.05,27.05,0,0,1,2.62-1.74c.61,3.81,1.17,7.38,1.76,11a233.46,233.46,0,0,0,7.92,34,95.63,95.63,0,0,0,13.71,27.69c4.23,5.73,9.55,10.1,16.41,12.34C358.09,490.36,360.18,490.76,362.22,491.28Z" transform="translate(3.78 0)" style="fill:#fff" />
	<path d="M362.22,491.28c-2-.52-4.13-.92-6.12-1.58-6.86-2.24-12.18-6.61-16.41-12.34A95.63,95.63,0,0,1,326,449.67a233.46,233.46,0,0,1-7.92-34c-.59-3.58-1.15-7.15-1.76-11a27.05,27.05,0,0,0-2.62,1.74C292.93,424.19,268.9,435,242.2,440.1a223.52,223.52,0,0,1-51,3.52c-39.92-1.57-78.07-11.18-115.14-25.64-2.75-1.07-5.46-2.26-8.24-3.27a8.35,8.35,0,0,1-5.68-6.93A25.53,25.53,0,0,1,62.31,396c1.78-6.16,6.27-9.8,11.86-12.21a21.25,21.25,0,0,1,19,.91c4.21,2.2,8.15,4.88,12.21,7.36.88.53,1.74,1.1,2.73,1.72.57-1.09,1.07-2.13,1.65-3.12,1.28-2.2,2.48-4.48,3.94-6.57,5.25-7.51,16.44-11.48,26.23-3.17.73.61,1.45,1.24,2.24,1.93.74-.95,1.43-1.87,2.16-2.74,2.46-2.92,5.18-5.47,9-6.51a18.06,18.06,0,0,1,10.49.66c2,.66,4,1.48,6,2.27.13-.26.28-.56.44-.86,1.14-2.11,2.16-4.29,3.44-6.31,3.28-5.15,8.1-7.36,14.16-7.09a62.72,62.72,0,0,1,14.66,2.88l1.87.55a4.14,4.14,0,0,0,.3-.53c2.7-6.77,7.93-9.88,15-10.21,3.15-.14,6.31,0,9.62,0,0-.22,0-.63,0-1a29.5,29.5,0,0,1,1.37-10.76,16.17,16.17,0,0,1,4.54-6.95A26.93,26.93,0,0,1,250,329.36a17.49,17.49,0,0,1,10.39,2.21l1.32.71a1.83,1.83,0,0,0,.29-.36c2.89-5.76,7.76-8.76,13.94-9.82,2.94-.5,5.93-.76,9-1.15.25-3.74.51-7.56.77-11.35-2-.94-3.93-.61-5.85-.39a59.55,59.55,0,0,0-22.19,7.21c-10.17,5.54-20.29,11.19-30.58,16.51a177.63,177.63,0,0,1-47.6,16.88,162.32,162.32,0,0,1-38.42,2.85c-23.48-1-45.81-6.92-67.44-15.8-13.18-5.4-25.75-11.9-37-20.72s-21-19.37-27.6-32.3A73.48,73.48,0,0,1,1.19,243.9a37.09,37.09,0,0,1,2.06-10.79c3.13-8,9.23-12.57,17.42-14.41a90.1,90.1,0,0,1,26-1.62c16.2,1.12,31.38,6.08,46.24,12.23,10.3,4.26,20.48,8.8,30.84,12.87a229.37,229.37,0,0,0,46.44,12.88,214.93,214.93,0,0,0,38,2.53,350.18,350.18,0,0,0,68.59-8.12c5.36-1.13,10.83-1.61,16.17-2.71,6.51-1.35,12.87-3.41,19.29-5.21,2.57-.72,5.1-1.58,7.77-2.41-3.38-8.35-1.1-16,2.7-23.36-2.9-.47-5.74-.73-8.46-1.42A16.24,16.24,0,0,1,302,199.91a31.59,31.59,0,0,1,1.36-12.07c.12-.41.23-.83.36-1.31-2-.1-3.89-.13-5.79-.3-6.72-.58-12.05-3.29-14.84-9.82-.48-1.14-1-2.25-1.46-3.41-1.94-5.46-3.85-10.92-5.77-16.38-.15-.45-.32-.89-.55-1.49-1.31.41-2.54.84-3.79,1.19-2.11.6-4.21,1.3-6.36,1.69a9,9,0,0,1-8.62-2.8,28.92,28.92,0,0,1-4.92-7.62c-1.22-2.56-2.45-5.11-3.62-7.69-.38-.84-.79-1-1.74-.81-4.64,1-9.27,2.1-14,2.79-9.07,1.32-16.26-1.77-21.17-9.69-.55-.89-1.14-1.74-1.62-2.66-.36-.7-.72-.7-1.42-.5a83.11,83.11,0,0,1-8.43,2.24,20.4,20.4,0,0,1-14.74-2.87c-3.55-2.21-6.79-4.9-10.16-7.39-.35-.26-.66-.57-1.05-.91-1,.75-1.89,1.44-2.78,2.17-9.11,7.59-20.6,8.49-30.77,2.36a5.42,5.42,0,0,0-6.14-.16,34.26,34.26,0,0,1-13.25,4.65c-7,.87-13.1-1.26-18.72-5.2-1.44-1-2.8-2.12-4.28-3.25-1.48,1.14-3,2.33-4.51,3.47a56.52,56.52,0,0,1-13.16,7.79,18.1,18.1,0,0,1-18-2.08c-1.79-1.26-3.46-2.68-5.29-4.11-1,1.16-1.88,2.4-2.91,3.54a41.16,41.16,0,0,1-4.49,4.65c-5.73,4.6-13.18,3.67-17.73-2.09-4.3-5.44-7-11.54-6.52-18.57a65.35,65.35,0,0,1,2.1-10.92C30,91.24,34.34,80.82,41.43,71.7c5.16-6.65,11.43-12.18,17.93-17.46,13.92-11.3,29.47-19.8,46-26.66A358.19,358.19,0,0,1,178.67,5.72,346.06,346.06,0,0,1,224.73.43c2.55-.12,5.1-.29,7.65-.43h19.44c.87.07,1.74.19,2.61.22a211.29,211.29,0,0,1,28.63,2.63,184.22,184.22,0,0,1,50.16,16c24.13,11.65,45.17,27.6,64.06,46.46,24.51,24.47,43,53,56.24,84.91a326.36,326.36,0,0,1,18.13,60.48,339.69,339.69,0,0,1,5.44,36c.82,9,1.22,18,1.81,27.05.05.67.13,1.34.2,2v19.92c-.07.75-.18,1.49-.2,2.24Q478.42,316,476.14,334c-1.6,12.6-3.38,25.18-5.18,37.76-2.27,15.82-5,31.55-8.66,47.13-2.16,9.29-4.32,18.6-7.93,27.47-1.59,3.92-3.26,7.81-5.07,11.64-1.64,3.45-4.23,5.88-8.29,6a15.22,15.22,0,0,1-4.82-.71c-5.66-1.76-10.34-5.17-14.51-9.27a154.54,154.54,0,0,1-17.9-21.88,34.12,34.12,0,0,0-3.1-4c-4.54-4.72-10-4.95-14.67-.34-5.94,5.88-10.92,12.46-13,20.77q-3.89,15.31-7.62,30.68c-1,4-2.12,7.88-2.18,12ZM40.63,95.24c.56,0,1,0,1.43,0,3.7-.29,7.4-.64,11.11-.89,6.73-.46,13.48-.84,20.21-1.28,6.9-.44,13.79-1,20.7-1.35,7.14-.37,14.3-.59,21.45-.8a391.62,391.62,0,0,1,51.26,1.72c8.33.84,16.64,1.91,24.93,3.13a301.62,301.62,0,0,1,38.48,8.39,251.65,251.65,0,0,1,48,18.49c23.76,12.34,43.47,29.25,58.3,51.66,11.47,17.35,18.15,36.29,18.72,57.2a110.21,110.21,0,0,1-3.42,29.88A152.55,152.55,0,0,1,325,316.51a202.53,202.53,0,0,1-32.24,33.26,286.37,286.37,0,0,1-74.19,45.15,294.42,294.42,0,0,1-86.05,20.94c-7.59.71-15.23.82-22.85,1.22-.22,0-.43.06-.64.09l-.12.3A8.12,8.12,0,0,0,111,419c17.74,5.11,35.68,9.37,54,11.74,8.34,1.07,16.76,1.72,25.16,2.22a202.89,202.89,0,0,0,33.88-.89,182.38,182.38,0,0,0,24-4.12c28.9-7.06,53.27-21.59,72.83-44.1,1.19-1.36,2.6-2.53,4.09-4,.42,5,.75,9.65,1.23,14.29.67,6.47,1.31,12.94,2.23,19.38a215.41,215.41,0,0,0,6.88,31.23c2.36,7.85,5.19,15.49,9.72,22.4a38.74,38.74,0,0,0,9,9.66c.49-2.34.95-4.6,1.43-6.85,1.86-8.69,3.93-17.32,7.23-25.6,4-10.1,9.53-19.14,18.35-25.84a20.67,20.67,0,0,1,7.51-4.08c4.38-1.08,8.71-.52,13.06.18a9,9,0,0,1,6.22,4.06c.6.9,1.12,1.84,1.71,2.75,1.88,2.87,3.56,5.9,5.7,8.56,4.37,5.46,8.94,10.76,13.54,16a61.86,61.86,0,0,0,6.24,6.3c2.71,2.33,5.4,1.78,7.39-1.21a7.6,7.6,0,0,0,.43-.72,64,64,0,0,0,5.48-15.12c1.18-5.94,2.17-11.92,3.23-17.88q2.25-12.58,4.46-25.18,2.13-12.24,4.15-24.51c1.44-8.65,3-17.27,4.18-26,1.28-9.81,2.36-19.66,3.1-29.52.63-8.37.81-16.77.9-25.17a305,305,0,0,0-1.51-34.72c-.68-6.55-1.24-13.12-2.27-19.61-1.44-9-3.06-18.07-5-27a290.39,290.39,0,0,0-17.73-55.42Q414.42,87.1,358.7,46.57C328.12,24.45,294,12.4,256.19,10.87a325.08,325.08,0,0,0-48.73,1.7q-12.84,1.41-25.58,3.6a328.24,328.24,0,0,0-47.55,12C118,33.53,102,39.74,87,48.26,74,55.63,62.13,64.4,52.22,75.66A61.28,61.28,0,0,0,40.63,95.24ZM148.14,342l0,.35c6.8-.59,13.61-1,20.4-1.8a131.56,131.56,0,0,0,24-5.17c14-4.27,27.18-10.53,40-17.49,7.82-4.23,15.57-8.61,23.45-12.73,11.91-6.23,24.6-8,37.87-6.21,3.72.5,7.47.7,11.21,1.07.79.08,1.11-.22,1.36-.93q3.35-9.7,6.78-19.39c.27-.75.24-1.16-.51-1.63a13.55,13.55,0,0,1-5.69-7.18,25.35,25.35,0,0,1-1-11c.08-.9-.24-1.15-1-1.4a28.84,28.84,0,0,0-16.51-.58,400.09,400.09,0,0,1-50.85,8.68q-12.17,1.23-24.39,1.69a198.93,198.93,0,0,1-37.31-1.62c-7.56-1.13-15.12-2.38-22.57-4-16.59-3.64-32.48-9.4-48-16.28-11.4-5.06-22.83-10.05-34.78-13.67-9.66-2.93-19.47-5.09-29.6-5.06-5.65,0-11.31.66-17,1.12-6.05.49-10,3.82-11.38,9.72a57.22,57.22,0,0,0-.41,21.9A63.24,63.24,0,0,0,22.7,285.86c7.92,11.73,18.21,21,30.1,28.47,12.07,7.61,25.13,13.14,38.59,17.73A176.34,176.34,0,0,0,148.14,342ZM292.68,143.34a19.76,19.76,0,0,0-1.41,1.85c-4.66,7.89-4.64,15.94-.44,23.93,2.85,5.42,7.46,6.62,12.78,5.71,5.72-1,10.57-3.88,15.11-7.37,0,0,0-.14.09-.31ZM335.92,277c.3-1,.52-1.64.71-2.32,1.74-6.12,3.49-12.24,5.19-18.36A3.66,3.66,0,0,0,339,252c-1.88-.31-3.78-.58-5.68-.79a32.62,32.62,0,0,0-10.48.13c-5.91,1.23-8.44,5.83-6.33,11.5a15.67,15.67,0,0,0,7.43,8.6C327.8,273.43,331.81,275.1,335.92,277Zm-90.08,92.62,19.5-12.06c-1.93-3.72-3.77-7.34-5.68-10.92a28,28,0,0,0-2.29-3.65,6.77,6.77,0,0,0-8.37-2.46c-1.05.37-2.09.78-3.11,1.23-4.19,1.86-6.15,5.09-6,9.67C240,358.09,242.66,363.86,245.84,369.63Zm-183.92-266c.36,2,.59,3.82,1.06,5.61a54.51,54.51,0,0,0,2.48,8.31,8,8,0,0,0,9.26,4.73A23,23,0,0,0,87,115.81a39,39,0,0,0,7.4-11.38c.43-.92.81-1.86,1.3-3Zm277,97.38c-4.39-8.15-8.7-16.17-13.1-24.33-5.71,4.38-10.54,9.27-12.73,16.19a13.35,13.35,0,0,0-.62,5.05c.48,5.38,4.54,7.29,8.77,6.79,3.78-.43,7.51-1.35,11.24-2.12C334.57,202.19,336.66,201.6,338.88,201.05ZM207.38,387.72a80.25,80.25,0,0,0-4.07-7.32A16.78,16.78,0,0,0,188.45,373c-4.65.07-7.68,2.93-7.87,7.59-.19,4.38-.1,8.78-.14,13.18v3.08Zm-100.9-286.3c-.1,2.09-.38,4.15-.28,6.19a10.65,10.65,0,0,0,5.23,9c6.5,4.11,14.29,1.69,18.68-3.35,2.94-3.39,3.69-7.45,3.35-11.86Zm144.38,20.5-.27-.39q-14.11-4.43-28.23-8.87c-.64-.2-1-.09-1.18.55a44.56,44.56,0,0,0-1.56,6.22c-.64,5.75,2,11.45,9.85,12.06a23.84,23.84,0,0,0,16.85-5.25C248,125,249.35,123.36,250.86,121.92ZM141.44,404.48c-.59-1.16-1-2.05-1.48-2.91-2.15-3.92-4.27-7.84-6.47-11.72a5.79,5.79,0,0,0-3.52-2.72c-2.56-.74-4.6.33-6.45,1.94-3.56,3.11-5.19,7.28-6.31,11.7-.48,1.86-.85,3.75-1.31,5.8Zm203.45-163.8c-.11-1.27-.19-2.34-.3-3.4q-.66-7-1.33-13.93c-.35-3.69-.71-7.38-1-11.08-.07-.9-.61-1.08-1.29-1.24s-1.15-.23-1.63.47c-1.12,1.6-2.38,3.11-3.55,4.67-2.37,3.16-4.74,6.33-5.81,10.23-1.13,4.11-.64,7.88,2.77,10.78S340.42,240.57,344.89,240.68ZM169.06,103.53l-1.27-.09-7.52-.58c-4.54-.36-9.08-.71-13.61-1.1-.76-.06-1.07.2-1.2.94-.33,1.88-.91,3.73-1.07,5.62-.4,4.77,1.36,7.78,6.07,8.85a19.33,19.33,0,0,0,5.68.39C162.65,117.09,168.93,110.24,169.06,103.53Zm40.89,6.2-28.86-4.9a11.6,11.6,0,0,0,2.41,9.38A18.35,18.35,0,0,0,194,120.46a10.84,10.84,0,0,0,9.4-1.93C206.38,116.3,208.31,113.25,210,109.73Zm51.6,16.51c-.15.32-.26.53-.34.75a23.9,23.9,0,0,0-1.15,11.9,32.07,32.07,0,0,0,1.63,6.21c.9,2.34,2.8,3,5.18,2.27a9.08,9.08,0,0,0,1.54-.64Q275.22,143,282,139.2a1.33,1.33,0,0,0,0-2.36C275.25,133.31,268.45,129.81,261.55,126.24ZM72.6,404.59l29.64,2.18a1.35,1.35,0,0,0,0-.28,4.28,4.28,0,0,0-.19-.43,25.16,25.16,0,0,0-16.24-12.64c-4.79-1.26-8.85.35-11.2,4.26A15.9,15.9,0,0,0,72.6,404.59Zm99-5.79c-2.19-3.47-4.22-6.76-6.33-10A17.3,17.3,0,0,0,163,386a6.39,6.39,0,0,0-6.51-2,5.58,5.58,0,0,0-4.19,4.87c-.66,3.89-1.15,7.8-1.7,11.7-.12.85-.18,1.7-.28,2.63ZM237,374.58c-1.71-1.79-3.29-3.54-5-5.17a7.37,7.37,0,0,0-2.39-1.56,22.71,22.71,0,0,0-9.48-1.61c-3.7.21-5.57,2.1-5.49,5.81A44.29,44.29,0,0,0,217,383.81ZM52.56,104.77l-17.44,2.36a5.22,5.22,0,0,0,0,.69c.65,3.84,1.28,7.69,2,11.53a9.18,9.18,0,0,0,2.74,5.32,2.41,2.41,0,0,0,2.95.48,6.79,6.79,0,0,0,3.54-3.57c1-2.55,2-5.1,3-7.68C50.39,111,51.41,108,52.56,104.77ZM274.14,351.28c6.18-5.13,12.21-10.12,18.35-15.2-4.57-3.38-9.47-4.76-14.95-3.49-3.61.83-5.79,3.06-6.12,6.87C271.06,343.61,272.49,347.36,274.14,351.28ZM313.93,313c-3.4-2.5-7-4.23-11.21-3.87a7.25,7.25,0,0,0-5.9,3.78,7.46,7.46,0,0,0-.84,4.74c.46,3.95,2.46,7.22,4.58,10.58Zm17.2-26.32a19.44,19.44,0,0,0-11.09-.87c-3.91.93-5.92,3.32-5.8,7.31.15,4.74,3.39,7.56,6.71,10.47Z" transform="translate(3.78 0)" />
	<path d="M479.1,275.76c-.07-.67-.15-1.34-.2-2-.59-9-1-18.05-1.81-27.05a339.69,339.69,0,0,0-5.44-36,326.36,326.36,0,0,0-18.13-60.48c-13.23-32-31.73-60.44-56.24-84.91-18.89-18.86-39.93-34.81-64.06-46.46a184.22,184.22,0,0,0-50.16-16A211.29,211.29,0,0,0,254.43.22c-.87,0-1.74-.15-2.61-.22H479.1Z" transform="translate(3.78 0)" style="fill:#fff" />
	<path d="M363.18,491.28c.06-4.12,1.22-8,2.18-12q3.74-15.36,7.62-30.68c2.11-8.31,7.09-14.89,13-20.77,4.65-4.61,10.13-4.38,14.67.34a34.12,34.12,0,0,1,3.1,4A154.54,154.54,0,0,0,421.68,454c4.17,4.1,8.85,7.51,14.51,9.27A15.22,15.22,0,0,0,441,464c4.06-.09,6.65-2.52,8.29-6,1.81-3.83,3.48-7.72,5.07-11.64,3.61-8.87,5.77-18.18,7.93-27.47,3.61-15.58,6.39-31.31,8.66-47.13,1.8-12.58,3.58-25.16,5.18-37.76q2.28-18,2.76-36.11c0-.75.13-1.49.2-2.24v195.6Z" transform="translate(3.78 0)" style="fill:#fff" />
	<path d="M40.63,95.24A61.28,61.28,0,0,1,52.22,75.66C62.13,64.4,74,55.63,87,48.26c15-8.52,31-14.73,47.33-20.13a328.24,328.24,0,0,1,47.55-12q12.72-2.19,25.58-3.6a325.08,325.08,0,0,1,48.73-1.7C294,12.4,328.12,24.45,358.7,46.57Q414.53,87,441.89,150.29a290.39,290.39,0,0,1,17.73,55.42c1.91,8.95,3.53,18,5,27,1,6.49,1.59,13.06,2.27,19.61a305,305,0,0,1,1.51,34.72c-.09,8.4-.27,16.8-.9,25.17-.74,9.86-1.82,19.71-3.1,29.52-1.14,8.69-2.74,17.31-4.18,26q-2,12.27-4.15,24.51-2.19,12.6-4.46,25.18c-1.06,6-2.05,11.94-3.23,17.88a64,64,0,0,1-5.48,15.12,7.6,7.6,0,0,1-.43.72c-2,3-4.68,3.54-7.39,1.21a61.86,61.86,0,0,1-6.24-6.3c-4.6-5.28-9.17-10.58-13.54-16-2.14-2.66-3.82-5.69-5.7-8.56-.59-.91-1.11-1.85-1.71-2.75a9,9,0,0,0-6.22-4.06c-4.35-.7-8.68-1.26-13.06-.18a20.67,20.67,0,0,0-7.51,4.08c-8.82,6.7-14.33,15.74-18.35,25.84-3.3,8.28-5.37,16.91-7.23,25.6-.48,2.25-.94,4.51-1.43,6.85a38.74,38.74,0,0,1-9-9.66c-4.53-6.91-7.36-14.55-9.72-22.4a215.41,215.41,0,0,1-6.88-31.23c-.92-6.44-1.56-12.91-2.23-19.38-.48-4.64-.81-9.3-1.23-14.29-1.49,1.44-2.9,2.61-4.09,4-19.56,22.51-43.93,37-72.83,44.1a182.38,182.38,0,0,1-24,4.12,202.89,202.89,0,0,1-33.88.89c-8.4-.5-16.82-1.15-25.16-2.22-18.32-2.37-36.26-6.63-54-11.74a8.12,8.12,0,0,1-2.15-1.5l.12-.3c.21,0,.42-.08.64-.09,7.62-.4,15.26-.51,22.85-1.22a294.42,294.42,0,0,0,86.05-20.94,286.37,286.37,0,0,0,74.19-45.15A202.53,202.53,0,0,0,325,316.51a152.55,152.55,0,0,0,26.81-55.13,110.21,110.21,0,0,0,3.42-29.88c-.57-20.91-7.25-39.85-18.72-57.2-14.83-22.41-34.54-39.32-58.3-51.66a251.65,251.65,0,0,0-48-18.49,301.62,301.62,0,0,0-38.48-8.39c-8.29-1.22-16.6-2.29-24.93-3.13a391.62,391.62,0,0,0-51.26-1.72c-7.15.21-14.31.43-21.45.8-6.91.35-13.8.91-20.7,1.35-6.73.44-13.48.82-20.21,1.28-3.71.25-7.41.6-11.11.89C41.63,95.27,41.19,95.24,40.63,95.24ZM197.92,65.57a3.69,3.69,0,0,0,3.85-2.33c1-2.38,1.68-4.89,2.62-7.3a9.11,9.11,0,0,0,.14-6.5c-.94-2.75-1.55-5.64-2.71-8.28-1.32-3-4.44-3.4-6.62-.93a12.56,12.56,0,0,0-2.37,4.22,25.66,25.66,0,0,0-.62,13,12.93,12.93,0,0,0,2.57,6.11A4.62,4.62,0,0,0,197.92,65.57Zm33-10.9a21.08,21.08,0,0,0,2.8,10.2c.92,1.64,2,3.21,4.16,3.09s3.19-1.68,3.79-3.39c1.08-3.08,1.9-6.24,2.83-9.38a.9.9,0,0,0,0-.46c-.88-3.36-1.63-6.75-2.71-10a4.79,4.79,0,0,0-4.32-3.35c-1.94-.11-3.16,1.41-4,3A22.16,22.16,0,0,0,230.93,54.67Z" transform="translate(3.78 0)" style="fill:#fff" />
	<path d="M148.14,342a176.34,176.34,0,0,1-56.75-9.93c-13.46-4.59-26.52-10.12-38.59-17.73-11.89-7.51-22.18-16.74-30.1-28.47a63.24,63.24,0,0,1-10.31-25.51,57.22,57.22,0,0,1,.41-21.9c1.34-5.9,5.33-9.23,11.38-9.72,5.65-.46,11.31-1.1,17-1.12,10.13,0,19.94,2.13,29.6,5.06,12,3.62,23.38,8.61,34.78,13.67,15.51,6.88,31.4,12.64,48,16.28,7.45,1.64,15,2.89,22.57,4a198.93,198.93,0,0,0,37.31,1.62q12.21-.48,24.39-1.69a400.09,400.09,0,0,0,50.85-8.68,28.84,28.84,0,0,1,16.51.58c.73.25,1.05.5,1,1.4a25.35,25.35,0,0,0,1,11,13.55,13.55,0,0,0,5.69,7.18c.75.47.78.88.51,1.63q-3.43,9.69-6.78,19.39c-.25.71-.57,1-1.36.93-3.74-.37-7.49-.57-11.21-1.07-13.27-1.78-26,0-37.87,6.21-7.88,4.12-15.63,8.5-23.45,12.73-12.85,7-26,13.22-40,17.49a131.56,131.56,0,0,1-24,5.17c-6.79.75-13.6,1.21-20.4,1.8Zm-63-58.76c.2,1.22.43,2.24.52,3.27a7.2,7.2,0,0,0,2.78,4.94,95.53,95.53,0,0,0,46.21,21.94c6.08,1.13,12.27,1.68,18.41,2.42a52.05,52.05,0,0,0,11.23.47,194.4,194.4,0,0,0,30.3-5.36c20.36-5.16,40.69-10.41,61-15.56,5.5-1.39,11-2.86,16.59-3.73,5.35-.84,10.82-1,16.24-1.36a5.47,5.47,0,0,0,3.77-1.55c1.34-1.37,2.65-2.77,3.75-3.93a41.11,41.11,0,0,0-3.26-3.62,4.08,4.08,0,0,0-2.4-.81c-2.15-.09-4.31,0-6.47,0-6.6.16-13.23.17-19.67,1.77-20.26,5.05-40.53,10.11-60.73,15.39-12.61,3.29-25.19,6.6-38.28,7.37A114,114,0,0,1,138,303.29c-16.34-3-30.36-10.8-43.38-20.7a3.63,3.63,0,0,0-3.12-.77C89.38,282.25,87.33,282.74,85.14,283.23Z" transform="translate(3.78 0)" style="fill:#fff" />
	<path d="M292.68,143.34l26.13,23.81c-.05.17,0,.28-.09.31-4.54,3.49-9.39,6.4-15.11,7.37-5.32.91-9.93-.29-12.78-5.71-4.2-8-4.22-16,.44-23.93A19.76,19.76,0,0,1,292.68,143.34Z" transform="translate(3.78 0)" style="fill:#fff" />
	<path d="M335.92,277c-4.11-1.91-8.12-3.58-11.94-5.62a15.67,15.67,0,0,1-7.43-8.6c-2.11-5.67.42-10.27,6.33-11.5a32.62,32.62,0,0,1,10.48-.13c1.9.21,3.8.48,5.68.79a3.66,3.66,0,0,1,2.78,4.38c-1.7,6.12-3.45,12.24-5.19,18.36C336.44,275.37,336.22,276,335.92,277Z" transform="translate(3.78 0)" style="fill:#fff" />
	<path d="M245.84,369.63c-3.18-5.77-5.87-11.54-6-18.19-.1-4.58,1.86-7.81,6-9.67,1-.45,2.06-.86,3.11-1.23a6.77,6.77,0,0,1,8.37,2.46,28,28,0,0,1,2.29,3.65c1.91,3.58,3.75,7.2,5.68,10.92Z" transform="translate(3.78 0)" style="fill:#fff" />
	<path d="M61.92,103.67l33.77-2.22c-.49,1.12-.87,2.06-1.3,3A39,39,0,0,1,87,115.81a23,23,0,0,1-12.27,6.51,8,8,0,0,1-9.26-4.73A54.51,54.51,0,0,1,63,109.28C62.51,107.49,62.28,105.63,61.92,103.67Z" transform="translate(3.78 0)" style="fill:#fff" />
	<path d="M338.88,201.05c-2.22.55-4.31,1.14-6.44,1.58-3.73.77-7.46,1.69-11.24,2.12-4.23.5-8.29-1.41-8.77-6.79a13.35,13.35,0,0,1,.62-5.05c2.19-6.92,7-11.81,12.73-16.19C330.18,184.88,334.49,192.9,338.88,201.05Z" transform="translate(3.78 0)" style="fill:#fff" />
	<path d="M207.38,387.72l-26.94,9.08v-3.08c0-4.4-.05-8.8.14-13.18.19-4.66,3.22-7.52,7.87-7.59a16.78,16.78,0,0,1,14.86,7.45A80.25,80.25,0,0,1,207.38,387.72Z" transform="translate(3.78 0)" style="fill:#fff" />
	<path d="M106.48,101.42h27c.34,4.41-.41,8.47-3.35,11.86-4.39,5-12.18,7.46-18.68,3.35a10.65,10.65,0,0,1-5.23-9C106.1,105.57,106.38,103.51,106.48,101.42Z" transform="translate(3.78 0)" style="fill:#fff" />
	<path d="M250.86,121.92c-1.51,1.44-2.9,3-4.54,4.32a23.84,23.84,0,0,1-16.85,5.25c-7.88-.61-10.49-6.31-9.85-12.06a44.56,44.56,0,0,1,1.56-6.22c.17-.64.54-.75,1.18-.55q14.1,4.45,28.23,8.87Z" transform="translate(3.78 0)" style="fill:#fff" />
	<path d="M141.44,404.48l-25.54,2.09c.46-2.05.83-3.94,1.31-5.8,1.12-4.42,2.75-8.59,6.31-11.7,1.85-1.61,3.89-2.68,6.45-1.94a5.79,5.79,0,0,1,3.52,2.72c2.2,3.88,4.32,7.8,6.47,11.72C140.43,402.43,140.85,403.32,141.44,404.48Z" transform="translate(3.78 0)" style="fill:#fff" />
	<path d="M344.89,240.68c-4.47-.11-8.7-.56-12.15-3.5s-3.9-6.67-2.77-10.78c1.07-3.9,3.44-7.07,5.81-10.23,1.17-1.56,2.43-3.07,3.55-4.67.48-.7,1-.62,1.63-.47s1.22.34,1.29,1.24c.3,3.7.66,7.39,1,11.08q.66,7,1.33,13.93C344.7,238.34,344.78,239.41,344.89,240.68Z" transform="translate(3.78 0)" style="fill:#fff" />
	<path d="M169.06,103.53c-.13,6.71-6.41,13.56-12.92,14a19.33,19.33,0,0,1-5.68-.39c-4.71-1.07-6.47-4.08-6.07-8.85.16-1.89.74-3.74,1.07-5.62.13-.74.44-1,1.2-.94,4.53.39,9.07.74,13.61,1.1l7.52.58Z" transform="translate(3.78 0)" style="fill:#fff" />
	<path d="M210,109.73c-1.64,3.52-3.57,6.57-6.56,8.8a10.84,10.84,0,0,1-9.4,1.93,18.35,18.35,0,0,1-10.49-6.25,11.6,11.6,0,0,1-2.41-9.38Z" transform="translate(3.78 0)" style="fill:#fff" />
	<path d="M261.55,126.24c6.9,3.57,13.7,7.07,20.49,10.6a1.33,1.33,0,0,1,0,2.36q-6.79,3.78-13.61,7.53a9.08,9.08,0,0,1-1.54.64c-2.38.76-4.28.07-5.18-2.27a32.07,32.07,0,0,1-1.63-6.21,23.9,23.9,0,0,1,1.15-11.9C261.29,126.77,261.4,126.56,261.55,126.24Z" transform="translate(3.78 0)" style="fill:#fff" />
	<path d="M72.6,404.59a15.9,15.9,0,0,1,2.05-6.91c2.35-3.91,6.41-5.52,11.2-4.26a25.16,25.16,0,0,1,16.24,12.64,4.28,4.28,0,0,1,.19.43,1.35,1.35,0,0,1,0,.28Z" transform="translate(3.78 0)" style="fill:#fff" />
	<path d="M171.56,398.8l-21.29,4.4c.1-.93.16-1.78.28-2.63.55-3.9,1-7.81,1.7-11.7a5.58,5.58,0,0,1,4.19-4.87,6.39,6.39,0,0,1,6.51,2,17.3,17.3,0,0,1,2.28,2.78C167.34,392,169.37,395.33,171.56,398.8Z" transform="translate(3.78 0)" style="fill:#fff" />
	<path d="M237,374.58l-20,9.23a44.29,44.29,0,0,1-2.33-11.76c-.08-3.71,1.79-5.6,5.49-5.81a22.71,22.71,0,0,1,9.48,1.61,7.37,7.37,0,0,1,2.39,1.56C233.69,371,235.27,372.79,237,374.58Z" transform="translate(3.78 0)" style="fill:#fff" />
	<path d="M52.56,104.77c-1.15,3.23-2.17,6.19-3.25,9.13-1,2.58-2,5.13-3,7.68a6.79,6.79,0,0,1-3.54,3.57,2.41,2.41,0,0,1-2.95-.48,9.18,9.18,0,0,1-2.74-5.32c-.7-3.84-1.33-7.69-2-11.53a5.22,5.22,0,0,1,0-.69Z" transform="translate(3.78 0)" style="fill:#fff" />
	<path d="M274.14,351.28c-1.65-3.92-3.08-7.67-2.72-11.82.33-3.81,2.51-6,6.12-6.87,5.48-1.27,10.38.11,14.95,3.49C286.35,341.16,280.32,346.15,274.14,351.28Z" transform="translate(3.78 0)" style="fill:#fff" />
	<path d="M313.93,313l-13.37,15.23c-2.12-3.36-4.12-6.63-4.58-10.58a7.46,7.46,0,0,1,.84-4.74,7.25,7.25,0,0,1,5.9-3.78C307,308.81,310.53,310.54,313.93,313Z" transform="translate(3.78 0)" style="fill:#fff" />
	<path d="M331.13,286.72,321,303.63c-3.32-2.91-6.56-5.73-6.71-10.47-.12-4,1.89-6.38,5.8-7.31A19.44,19.44,0,0,1,331.13,286.72Z" transform="translate(3.78 0)" style="fill:#fff" />
	<path d="M197.92,65.57a4.62,4.62,0,0,1-3.14-2,12.93,12.93,0,0,1-2.57-6.11,25.66,25.66,0,0,1,.62-13,12.56,12.56,0,0,1,2.37-4.22c2.18-2.47,5.3-2.07,6.62.93,1.16,2.64,1.77,5.53,2.71,8.28a9.11,9.11,0,0,1-.14,6.5c-.94,2.41-1.62,4.92-2.62,7.3A3.69,3.69,0,0,1,197.92,65.57Z" transform="translate(3.78 0)" />
	<path d="M230.93,54.67a22.16,22.16,0,0,1,2.57-10.33c.83-1.59,2.05-3.11,4-3a4.79,4.79,0,0,1,4.32,3.35c1.08,3.29,1.83,6.68,2.71,10a.9.9,0,0,1,0,.46c-.93,3.14-1.75,6.3-2.83,9.38-.6,1.71-1.68,3.29-3.79,3.39s-3.24-1.45-4.16-3.09A21.08,21.08,0,0,1,230.93,54.67Z" transform="translate(3.78 0)" />
	<path d="M85.14,283.23c2.19-.49,4.24-1,6.31-1.41a3.63,3.63,0,0,1,3.12.77c13,9.9,27,17.7,43.38,20.7a114,114,0,0,0,27.23,1.62c13.09-.77,25.67-4.08,38.28-7.37,20.2-5.28,40.47-10.34,60.73-15.39,6.44-1.6,13.07-1.61,19.67-1.77,2.16-.05,4.32-.12,6.47,0a4.08,4.08,0,0,1,2.4.81,41.11,41.11,0,0,1,3.26,3.62c-1.1,1.16-2.41,2.56-3.75,3.93a5.47,5.47,0,0,1-3.77,1.55c-5.42.36-10.89.52-16.24,1.36-5.59.87-11.09,2.34-16.59,3.73-20.36,5.15-40.69,10.4-61,15.56a194.4,194.4,0,0,1-30.3,5.36,52.05,52.05,0,0,1-11.23-.47c-6.14-.74-12.33-1.29-18.41-2.42a95.53,95.53,0,0,1-46.21-21.94,7.2,7.2,0,0,1-2.78-4.94C85.57,285.47,85.34,284.45,85.14,283.23Z" transform="translate(3.78 0)" />
</svg>
